<svg width="101" height="89" viewBox="0 0 101 89" fill="none" xmlns="http://www.w3.org/2000/svg">
<path d="M37.8609 6.625C32.8402 6.625 28.0252 8.6202 24.4751 12.1717C20.9249 15.7231 18.9305 20.54 18.9305 25.5625C18.9305 30.585 20.9249 35.4019 24.4751 38.9533C28.0252 42.5048 32.8402 44.5 37.8609 44.5C42.8815 44.5 47.6966 42.5048 51.2467 38.9533C54.7968 35.4019 56.7913 30.585 56.7913 25.5625C56.7913 20.54 54.7968 15.7231 51.2467 12.1717C47.6966 8.6202 42.8815 6.625 37.8609 6.625ZM28.3957 50.8125C24.6644 50.8042 20.9682 51.5332 17.5193 52.9578C14.0704 54.3824 10.9368 56.4745 8.2984 59.1139C5.65996 61.7534 3.56868 64.8881 2.14461 68.3383C0.720546 71.7885 -0.00824911 75.4861 7.04321e-05 79.2188V82.375C7.04321e-05 88.6875 6.3102 88.6875 6.3102 88.6875H69.4115C69.4115 88.6875 75.7217 88.6875 75.7217 82.375V79.2188C75.73 75.4861 75.0012 71.7885 73.5771 68.3383C72.1531 64.8881 70.0618 61.7534 67.4233 59.1139C64.7849 56.4745 61.6513 54.3824 58.2024 52.9578C54.7536 51.5332 51.0574 50.8042 47.3261 50.8125H28.3957Z" fill="white"/>
<path d="M75.7594 0.331436V12.9375H63.1392V25.5436H75.7594V38.1433H88.3797V25.5436H101V12.9375H88.3797V0.331436H75.7594Z" fill="white"/>
</svg>
