<svg width="104" height="99" viewBox="0 0 104 99" fill="none" xmlns="http://www.w3.org/2000/svg">
<path d="M36.2904 43.7421C38.6943 43.7421 40.6453 41.794 40.6453 39.3872C40.6453 36.9834 38.6943 35.0324 36.2904 35.0324C33.8865 35.0324 31.9356 36.9834 31.9356 39.3872C31.9354 41.7938 33.8865 43.7421 36.2904 43.7421ZM53.7097 43.7421C56.1137 43.7421 58.0646 41.794 58.0646 39.3872C58.0646 36.9834 56.1135 35.0324 53.7097 35.0324C51.3059 35.0324 49.355 36.9834 49.355 39.3872C49.3549 41.7938 51.3059 43.7421 53.7097 43.7421ZM27.9754 72.0106C30.2341 72.3765 35.3641 72.7741 37.7419 72.7741C58.5872 72.7741 72.5807 57.2622 72.5807 39.0241C72.5807 20.786 55.0946 6 37.7419 6C16.8678 6 0 20.7862 0 39.0241C0 49.589 4.02676 58.56 11.6129 65.0197V81.4838L27.9754 72.0106ZM5.80647 39.3871C5.80647 24.1538 19.6054 11.8065 37.7419 11.8065C52.1797 11.8065 66.7741 24.1538 66.7741 39.3871C66.7741 54.6203 55.379 66.9678 37.7419 66.9678C35.1494 66.9678 29.7406 66.6716 27.3281 66.1693L17.4194 72.7741V62.4853C10.3384 56.7397 5.80647 49.0635 5.80647 39.3871ZM78.239 32.5297C78.2941 33.3629 78.3871 34.1875 78.3871 35.0324C78.3871 36.8788 78.21 38.6875 77.9487 40.4731C81.8565 45.0485 84.1935 50.6837 84.1935 56.8066C84.1935 66.4831 78.4104 74.9837 69.6775 79.9046V90.1937L59.7687 83.5888C57.3562 84.091 54.8507 84.3872 52.2581 84.3872C44.7388 84.3872 40.744 82.1285 35.2859 78.3718C33.7037 78.4996 32.104 78.5809 30.484 78.5809C29.3285 78.5809 28.1962 78.4966 27.0581 78.4328C33.9678 85.1915 41.0778 89.4679 52.2581 89.4679C54.6359 89.4679 56.9554 89.2531 59.2113 88.8843L75.4838 98.9034V82.4362C84.3068 76.3916 90 67.0085 90 56.4406C90 47.0226 85.4709 38.5481 78.239 32.5297ZM18.871 43.7421C21.2749 43.7421 23.2259 41.794 23.2259 39.3872C23.2259 36.9834 21.2749 35.0324 18.871 35.0324C16.4671 35.0324 14.5162 36.9834 14.5162 39.3872C14.5162 41.7938 16.4671 43.7421 18.871 43.7421Z" fill="white"/>
<path d="M85.2105 0H94.7895V28H85.2105V0Z" fill="white"/>
<path d="M104 9.21053V18.7895L76 18.7895L76 9.21052L104 9.21053Z" fill="white"/>
</svg>
