<svg width="85" height="79" viewBox="0 0 85 79" fill="none" xmlns="http://www.w3.org/2000/svg">
<path d="M51.7172 76.5313C50.7299 76.54 49.7595 76.2928 48.915 75.8175C48.0704 75.3421 47.3851 74.6575 46.9359 73.8403L36.3109 55.1519C36.0028 54.5743 35.9499 53.9075 36.1638 53.2942C36.3776 52.6809 36.8411 52.1696 37.4552 51.8697C38.0693 51.5698 38.7852 51.5051 39.45 51.6894C40.1147 51.8737 40.6755 52.2924 41.0125 52.8559L51.6375 71.5444L77.0312 7.55438L7.96873 30.8347L34 43.8203L56.1 23.2803C56.6002 22.8154 57.2786 22.5543 57.9859 22.5543C58.6933 22.5543 59.3717 22.8154 59.8719 23.2803C60.372 23.7452 60.653 24.3757 60.653 25.0331C60.653 25.6906 60.372 26.3211 59.8719 26.7859L36.364 48.6097C35.9644 48.9816 35.4475 49.2253 34.8885 49.3052C34.3295 49.3851 33.7577 49.2971 33.2562 49.0541L5.55155 35.3772C4.58181 34.9554 3.77184 34.2711 3.22782 33.414C2.68381 32.5569 2.43113 31.567 2.50293 30.5742C2.57472 29.5813 2.96763 28.6318 3.63014 27.85C4.29266 27.0683 5.19386 26.4909 6.21561 26.1934L75.039 2.78969C76.0125 2.40812 77.0863 2.30499 78.1232 2.49347C79.16 2.68196 80.1129 3.15349 80.8599 3.84782C81.607 4.54215 82.1143 5.42773 82.3171 6.3914C82.5199 7.35507 82.409 8.35306 81.9984 9.25782L56.8172 73.2231C56.471 74.1482 55.8366 74.9567 54.9946 75.5458C54.1527 76.1348 53.1413 76.4779 52.089 76.5313H51.7172Z" fill="white"/>
</svg>
