<svg width="87" height="26" viewBox="0 0 87 26" fill="none" xmlns="http://www.w3.org/2000/svg">
<path d="M8.39774 12.9428C9.01562 13.1262 9.48869 13.4255 9.81694 13.8406C10.1452 14.2558 10.3093 14.7675 10.3093 15.3757C10.3093 16.2736 9.96658 16.9735 9.28112 17.4755C8.60531 17.9776 7.63504 18.2286 6.37031 18.2286H1.37416V8.09145H6.09516C7.273 8.09145 8.19017 8.31833 8.84667 8.77208C9.50317 9.22584 9.83142 9.87269 9.83142 10.7126C9.83142 11.2146 9.70591 11.6588 9.4549 12.0449C9.20388 12.4215 8.8515 12.7207 8.39774 12.9428ZM3.7057 12.2911H5.89242C6.4041 12.2911 6.79028 12.1897 7.05095 11.987C7.31162 11.7746 7.44195 11.4657 7.44195 11.0602C7.44195 10.6643 7.30679 10.3602 7.03647 10.1478C6.7758 9.93544 6.39445 9.82924 5.89242 9.82924H3.7057V12.2911ZM6.28342 16.4908C7.38403 16.4908 7.93433 16.0563 7.93433 15.1874C7.93433 14.3475 7.38403 13.9275 6.28342 13.9275H3.7057V16.4908H6.28342ZM16.0892 12.9283C17.1029 12.938 17.8704 13.1648 18.3917 13.6089C18.9131 14.053 19.1738 14.6902 19.1738 15.5205C19.1738 16.3894 18.8793 17.0604 18.2904 17.5335C17.7015 18.0065 16.8664 18.2431 15.7851 18.2431L11.9909 18.2286V10.4375H14.2355V12.9283H16.0892ZM20.0137 10.4375H22.2583V18.2286H20.0137V10.4375ZM15.5823 16.6356C16.0168 16.6453 16.3498 16.5535 16.5815 16.3604C16.8133 16.1674 16.9291 15.8777 16.9291 15.4916C16.9291 15.115 16.8133 14.8399 16.5815 14.6661C16.3595 14.4923 16.0264 14.4006 15.5823 14.3909L14.2355 14.3765V16.6356H15.5823ZM24.436 10.4375H26.6807V15.0716L30.4748 10.4375H32.5457V18.2286H30.3011V13.5945L26.5214 18.2286H24.436V10.4375ZM28.346 9.59754C26.6469 9.59754 25.7925 8.84932 25.7828 7.35289H27.2599C27.2696 7.69079 27.3613 7.95629 27.5351 8.14938C27.7185 8.33281 27.984 8.42453 28.3316 8.42453C28.6791 8.42453 28.9446 8.33281 29.1281 8.14938C29.3211 7.95629 29.4177 7.69079 29.4177 7.35289H30.9238C30.9141 8.84932 30.0549 9.59754 28.346 9.59754ZM41.2631 12.2911H38.6274V18.2286H36.3828V12.2911H33.7471V10.4375H41.2631V12.2911ZM42.4673 10.4375H44.712V15.0716L48.5061 10.4375H50.577V18.2286H48.3324V13.5945L44.5527 18.2286H42.4673V10.4375Z" fill="white"/>
<path d="M73.3795 12.6571H83.6518" stroke="white" stroke-width="1.68571" stroke-linecap="round" stroke-linejoin="round"/>
<path d="M79.7088 19.7687V22.1393H67.066V3.17499H79.7088V5.54553H81.2892V2.38481C81.2892 2.17525 81.2059 1.97426 81.0577 1.82607C80.9095 1.67789 80.7086 1.59464 80.499 1.59464H66.2758C66.0662 1.59464 65.8652 1.67789 65.717 1.82607C65.5688 1.97426 65.4856 2.17525 65.4856 2.38481V22.9295C65.4856 23.139 65.5688 23.34 65.717 23.4882C65.8652 23.6364 66.0662 23.7196 66.2758 23.7196H80.499C80.7086 23.7196 80.9095 23.6364 81.0577 23.4882C81.2059 23.34 81.2892 23.139 81.2892 22.9295V19.7687H79.7088Z" fill="white"/>
<path d="M83.6518 12.6571L80.4911 15.8178" stroke="white" stroke-width="1.68571" stroke-linecap="round" stroke-linejoin="round"/>
<path d="M83.6518 12.6571L80.4911 9.49643" stroke="white" stroke-width="1.68571" stroke-linecap="round" stroke-linejoin="round"/>
<path d="M80.4911 6.40683V4.82648" stroke="white" stroke-width="1.68571" stroke-linecap="round" stroke-linejoin="round"/>
<path d="M80.4911 20.5589V18.9786" stroke="white" stroke-width="1.68571" stroke-linecap="round" stroke-linejoin="round"/>
</svg>
