<svg width="25" height="31" viewBox="0 0 25 31" fill="none" xmlns="http://www.w3.org/2000/svg">
<path d="M20.1381 10.3333V7.75C20.1381 5.69457 19.2953 3.72333 17.795 2.26992C16.2947 0.816515 14.2599 0 12.1381 0C10.0164 0 7.98156 0.816515 6.48127 2.26992C4.98098 3.72333 4.13812 5.69457 4.13812 7.75V10.3333C3.07823 10.3364 2.06265 10.7456 1.31319 11.4717C0.563732 12.1977 0.141288 13.1816 0.138123 14.2083V23.25C0.138123 25.3054 0.980978 27.2767 2.48127 28.7301C3.98156 30.1835 6.01639 31 8.13812 31H16.1381C18.2599 31 20.2947 30.1835 21.795 28.7301C23.2953 27.2767 24.1381 25.3054 24.1381 23.25V14.2083C24.135 13.1816 23.7125 12.1977 22.9631 11.4717C22.2136 10.7456 21.198 10.3364 20.1381 10.3333ZM6.80479 7.75C6.80479 6.37971 7.36669 5.06555 8.36689 4.09661C9.36708 3.12768 10.7236 2.58333 12.1381 2.58333C13.5526 2.58333 14.9092 3.12768 15.9094 4.09661C16.9096 5.06555 17.4715 6.37971 17.4715 7.75V10.3333H6.80479V7.75ZM13.4715 23.25C13.4715 23.5926 13.331 23.9211 13.0809 24.1633C12.8309 24.4056 12.4917 24.5417 12.1381 24.5417C11.7845 24.5417 11.4454 24.4056 11.1953 24.1633C10.9453 23.9211 10.8048 23.5926 10.8048 23.25V18.0833C10.8048 17.7408 10.9453 17.4122 11.1953 17.17C11.4454 16.9278 11.7845 16.7917 12.1381 16.7917C12.4917 16.7917 12.8309 16.9278 13.0809 17.17C13.331 17.4122 13.4715 17.7408 13.4715 18.0833V23.25Z" fill="white"/>
</svg>
