<svg width="20" height="5" viewBox="0 0 20 5" fill="none" xmlns="http://www.w3.org/2000/svg">
<path d="M17.2959 5C18.0579 5 18.6991 4.75945 19.2194 4.27835C19.7398 3.79725 20 3.19588 20 2.47423C20 1.7354 19.7398 1.14261 19.2194 0.695876C18.6991 0.231959 18.0579 0 17.2959 0C16.534 0 15.8928 0.231959 15.3724 0.695876C14.852 1.14261 14.5919 1.7354 14.5919 2.47423C14.5919 3.19588 14.852 3.79725 15.3724 4.27835C15.8928 4.75945 16.534 5 17.2959 5Z" fill="white"/>
<path d="M10 5C10.762 5 11.4031 4.75945 11.9235 4.27835C12.4439 3.79725 12.7041 3.19588 12.7041 2.47423C12.7041 1.7354 12.4439 1.14261 11.9235 0.695876C11.4031 0.231959 10.762 0 10 0C9.23803 0 8.59686 0.231959 8.07649 0.695876C7.55612 1.14261 7.29593 1.7354 7.29593 2.47423C7.29593 3.19588 7.55612 3.79725 8.07649 4.27835C8.59686 4.75945 9.23803 5 10 5Z" fill="white"/>
<path d="M2.70407 5C3.46604 5 4.10721 4.75945 4.62758 4.27835C5.14795 3.79725 5.40814 3.19588 5.40814 2.47423C5.40814 1.7354 5.14795 1.14261 4.62758 0.695876C4.10721 0.231959 3.46604 0 2.70407 0C1.9421 0 1.30093 0.231959 0.780555 0.695876C0.260184 1.14261 -5.24157e-07 1.7354 -5.24157e-07 2.47423C-5.24157e-07 3.19588 0.260184 3.79725 0.780555 4.27835C1.30093 4.75945 1.9421 5 2.70407 5Z" fill="white"/>
</svg>
