<svg width="99" height="99" viewBox="0 0 99 99" fill="none" xmlns="http://www.w3.org/2000/svg">
<g clip-path="url(#clip0_251_14)">
<path d="M26.834 98.371C20.26 98.371 14.107 95.582 9.66398 91.139C1.05498 82.53 -1.34502 67.5 10.725 55.43C17.797 48.358 46.125 20.032 60.266 5.888C65.286 0.868001 71.676 -1.07 77.793 0.569C83.801 2.178 88.725 7.1 90.334 13.107C91.973 19.228 90.035 25.616 85.016 30.636L37.639 78.014C34.934 80.719 31.879 82.32 28.807 82.645C25.766 82.965 22.862 81.986 20.83 79.955C17.144 76.27 16.619 69.334 22.746 63.21L56.024 29.93C57.391 28.563 59.606 28.563 60.973 29.93C62.34 31.297 62.34 33.513 60.973 34.879L27.696 68.158C24.819 71.034 24.555 73.78 25.78 75.005C26.317 75.542 27.132 75.784 28.071 75.683C29.512 75.531 31.153 74.6 32.69 73.063L80.067 25.687C83.317 22.437 84.563 18.613 83.573 14.921C82.598 11.284 79.62 8.306 75.983 7.331C72.292 6.341 68.467 7.587 65.215 10.838C51.075 24.979 22.746 53.309 15.674 60.379C6.44398 69.609 8.65398 80.229 14.613 86.188C20.572 92.147 31.191 94.359 40.424 85.128L89.965 35.586C91.332 34.219 93.547 34.219 94.914 35.586C96.281 36.953 96.281 39.169 94.914 40.535L45.373 90.078C39.534 95.919 32.998 98.371 26.834 98.371Z" fill="#FFFEFF"/>
</g>
<defs>
<clipPath id="clip0_251_14">
<rect width="98.371" height="98.371" fill="white"/>
</clipPath>
</defs>
</svg>
