<svg width="434" height="430" viewBox="0 0 434 430" fill="none" xmlns="http://www.w3.org/2000/svg">
<path d="M309.354 264.8C310.93 271.466 312.973 276.768 314.815 283.207C286.279 278.742 257.951 279.663 229.013 275.189C250.762 244.368 269.782 231.746 262.495 188.635C259.075 168.404 246.4 129.532 256.189 111.073C267.344 90.0441 282.497 97.1188 280.208 77.0988C276.631 45.808 294.555 14.8134 335.09 31.5871C375.096 48.1419 362.838 159.745 336.431 187.982C318.792 216.505 301.134 230 309.354 264.8Z" fill="url(#paint0_linear_79_89)"/>
<path d="M270.696 275.656L270.265 275.522C273.411 265.335 277.394 255.279 281.245 245.556L282.703 241.872C285.786 234.063 288.404 227.021 290.714 220.81C292.014 217.312 293.248 214.009 294.459 210.816C298.148 201.141 300.756 194.351 302.07 190.93C302.527 189.739 302.829 188.956 302.964 188.602C313.131 161.909 317.122 121.845 319.257 100.323C319.49 97.9866 319.704 95.8997 319.886 94.1076C323.132 63.3035 330.202 31.6406 340.899 0L341.326 0.148848C330.641 31.7537 323.576 63.3824 320.333 94.1552C320.145 95.9414 319.938 98.0253 319.706 100.368C317.561 121.911 313.572 162.012 303.386 188.763L302.492 191.091C301.177 194.514 298.569 201.3 294.881 210.976C293.665 214.168 292.437 217.47 291.136 220.966C288.826 227.181 286.206 234.224 283.123 242.037L281.665 245.723C277.816 255.436 273.837 265.485 270.696 275.656Z" fill="#FCFDFE"/>
<path d="M289.929 226.337L289.5 226.197C295.361 208.286 295.014 184.866 288.503 158.471C283.069 136.455 273.43 113.12 262.058 94.45L262.443 94.2163C273.839 112.924 283.497 136.305 288.941 158.362C295.471 184.841 295.817 208.345 289.929 226.337Z" fill="#FCFDFE"/>
<path d="M318.944 103.909C316.451 87.7563 311.895 71.8058 307.489 56.3821C304.468 45.8139 301.344 34.8736 298.906 23.9511L299.346 23.8529C301.782 34.7635 304.903 45.6904 307.922 56.2586C312.332 71.6956 316.892 87.6655 319.39 103.841L318.944 103.909Z" fill="#FCFDFE"/>
<path d="M312.126 156.42L311.728 156.207C322.545 136.031 346.211 113.907 362.375 108.864L362.51 109.293C346.438 114.309 322.892 136.331 312.126 156.42Z" fill="#FCFDFE"/>
<path d="M333.201 172.485C325.239 210.995 302.998 202.621 274.137 193.175C278.969 229.479 282.333 265.006 285.631 301.072C305.041 307.11 319.057 311.076 330.05 289.003C342.481 264.037 348.827 249.219 378.967 243.174C409.108 237.129 432.02 215.106 422.061 186.063C411.58 155.5 438.156 115.872 412.631 93.5464C368.17 54.6406 341.492 132.384 333.201 172.485Z" fill="url(#paint1_linear_79_89)"/>
<path d="M288.373 254.765L288.178 254.359C318.031 240.005 342.505 227.219 363.112 204.481C382.814 182.75 392.487 159.282 395.461 126.03C397.013 108.683 400.081 96.4401 404.594 79.7379L405.029 79.8569C400.527 96.5279 397.458 108.756 395.91 126.065C392.93 159.424 383.219 182.964 363.448 204.779C342.784 227.583 318.272 240.391 288.373 254.765Z" fill="#FCFDFE"/>
<path d="M326.124 302.754C319.269 294.323 311.891 287.464 303.551 281.785C299.304 278.893 294.936 276.924 289.692 274.857L289.857 274.437C295.136 276.521 299.529 278.497 303.811 281.413C312.189 287.117 319.607 294.004 326.48 302.469L326.124 302.754Z" fill="#FCFDFE"/>
<path d="M350.079 217.913L349.882 217.507C372.562 206.55 400.7 203.962 429.097 210.24L429 210.687C400.695 204.432 372.666 207 350.079 217.913Z" fill="#FCFDFE"/>
<path d="M389.036 161.65L388.588 161.595C388.939 158.717 385.131 134.259 381.45 112.327C377.306 87.6327 373.416 66.5172 372.778 65.2579L373.181 65.0555C373.926 66.5231 378.195 90.2108 381.896 112.252C385.581 134.216 389.392 158.723 389.036 161.65Z" fill="#FCFDFE"/>
<path d="M63.4379 142.468L0.303073 341.256C-0.0179073 342.262 -0.0852337 343.332 0.107076 344.37C0.299387 345.408 0.745381 346.383 1.40546 347.208C2.06554 348.032 2.91927 348.681 3.89087 349.097C4.86246 349.513 5.92184 349.683 6.97496 349.592L145.886 337.601L82.2717 139.054L63.4379 142.468Z" fill="url(#paint2_linear_79_89)"/>
<path d="M65.7656 142.468L2.63533 341.256C2.31428 342.262 2.24696 343.332 2.43934 344.37C2.63172 345.409 3.07785 346.383 3.73811 347.208C4.39837 348.033 5.25231 348.682 6.22411 349.098C7.19591 349.513 8.25547 349.683 9.3087 349.592L148.213 337.6L84.5995 139.054L65.7656 142.468Z" fill="url(#paint3_linear_79_89)"/>
<path d="M383.396 144.679L70.0487 138.408C65.5302 138.317 62.5005 141.45 63.2963 145.404L108.806 371.886C109.6 375.841 113.856 378.818 118.3 378.535L426.446 358.901C429.972 358.676 432.258 355.65 431.545 352.14L391.159 151.164C390.456 147.654 386.985 144.75 383.396 144.679Z" fill="url(#paint4_linear_79_89)"/>
<path d="M385.724 144.679L72.3795 138.408C67.861 138.317 64.8313 141.45 65.6271 145.404L111.126 371.889C111.92 375.844 116.178 378.821 120.621 378.538L428.77 358.901C432.296 358.676 434.582 355.65 433.87 352.14L393.484 151.164C392.785 147.654 389.31 144.75 385.724 144.679Z" fill="url(#paint5_linear_79_89)"/>
<g style="mix-blend-mode:multiply" opacity="0.15">
<g style="mix-blend-mode:multiply" opacity="0.15">
<path d="M300.45 266.417C239.279 236.692 180.407 260.149 139.368 222.045C114.147 198.629 110.14 165.316 111.467 139.191L72.3795 138.408C67.861 138.317 64.8313 141.45 65.6271 145.404L111.126 371.889C111.92 375.844 116.178 378.821 120.621 378.537L387.587 361.525C359.524 304.922 327.039 279.337 300.45 266.417Z" fill="#97A6B7"/>
</g>
</g>
<path d="M418.194 351.28L126.65 368.914C121.762 369.211 117.075 365.913 116.199 361.55L75.7042 160.032C74.8279 155.671 78.1542 152.196 83.1182 152.271L379.115 156.799C383.103 156.86 386.961 160.065 387.742 163.959L423.881 343.801C424.663 347.694 422.122 351.043 418.194 351.28Z" fill="#D8DEE8"/>
<path d="M419.517 351.199L128.292 368.814C123.409 369.111 118.727 365.814 117.85 361.455L77.3808 160.053C76.5045 155.693 79.8263 152.222 84.7844 152.297L380.459 156.82C384.441 156.881 388.296 160.084 389.077 163.975L425.197 343.725C425.979 347.616 423.441 350.962 419.517 351.199Z" fill="url(#paint6_linear_79_89)"/>
<path d="M376.499 180.55L100.873 178.856L98.3845 166.471L374.251 169.352L376.499 180.55Z" fill="url(#paint7_linear_79_89)"/>
<g style="mix-blend-mode:multiply" opacity="0.3">
<g style="mix-blend-mode:multiply" opacity="0.3">
<path d="M300.45 266.417C239.279 236.692 180.407 260.149 139.368 222.045C118.355 202.546 112.061 176.109 111.321 152.703L84.4505 152.292C79.6817 152.219 76.4806 155.567 77.3241 159.757L117.914 361.753C118.756 365.949 123.261 369.118 127.963 368.833L383.413 353.378C356.348 302.441 325.732 278.703 300.45 266.417Z" fill="#D8DEE8"/>
</g>
</g>
<path d="M135.268 351.295C134.983 351.295 134.707 351.196 134.486 351.016C134.266 350.835 134.114 350.584 134.058 350.305L102.223 191.847C102.187 191.668 102.192 191.483 102.236 191.306C102.28 191.129 102.363 190.964 102.479 190.822C102.595 190.681 102.741 190.567 102.906 190.489C103.071 190.411 103.252 190.37 103.435 190.37V190.37L157.952 190.464C158.237 190.465 158.513 190.564 158.733 190.745C158.953 190.925 159.104 191.176 159.16 191.456L190.395 346.899C190.429 347.072 190.427 347.251 190.386 347.424C190.345 347.596 190.268 347.757 190.16 347.897C190.051 348.037 189.914 348.152 189.757 348.234C189.6 348.316 189.427 348.363 189.25 348.373L135.338 351.286L135.268 351.295ZM104.943 192.84L136.274 348.764L187.688 345.985L156.938 192.929L104.943 192.84Z" fill="#D8DEE8"/>
<path d="M195.575 348.03C195.289 348.03 195.013 347.931 194.792 347.75C194.572 347.57 194.421 347.318 194.365 347.039L163.2 191.951C163.165 191.772 163.169 191.588 163.213 191.411C163.258 191.234 163.341 191.069 163.457 190.928C163.573 190.786 163.718 190.673 163.884 190.595C164.049 190.517 164.229 190.476 164.412 190.476V190.476L216.66 190.566C216.945 190.566 217.221 190.665 217.441 190.845C217.661 191.026 217.813 191.276 217.869 191.555L248.453 343.761C248.488 343.935 248.485 344.114 248.444 344.286C248.404 344.458 248.327 344.62 248.218 344.76C248.11 344.9 247.972 345.014 247.815 345.097C247.659 345.179 247.486 345.227 247.309 345.236L195.64 348.027L195.575 348.03ZM165.918 192.946L196.575 345.507L245.753 342.85L215.65 193.03L165.918 192.946Z" fill="#D8DEE8"/>
<path d="M253.37 344.907C253.085 344.907 252.808 344.808 252.588 344.628C252.367 344.447 252.216 344.196 252.16 343.916L221.644 192.053C221.608 191.873 221.612 191.689 221.656 191.511C221.7 191.334 221.784 191.169 221.899 191.028C222.015 190.886 222.161 190.773 222.327 190.695C222.492 190.616 222.672 190.576 222.855 190.576V190.576L272.974 190.662C273.259 190.663 273.535 190.762 273.755 190.942C273.975 191.122 274.126 191.373 274.183 191.652L304.137 340.753C304.172 340.927 304.169 341.106 304.129 341.278C304.089 341.451 304.011 341.612 303.903 341.752C303.794 341.892 303.657 342.007 303.5 342.089C303.342 342.172 303.169 342.219 302.992 342.228L253.431 344.907H253.37ZM224.363 193.045L254.371 342.384L301.443 339.841L271.961 193.127L224.363 193.045Z" fill="#D8DEE8"/>
<path d="M308.813 341.917C308.528 341.917 308.252 341.818 308.031 341.638C307.81 341.457 307.659 341.206 307.602 340.927L277.707 192.154C277.671 191.975 277.676 191.79 277.72 191.613C277.765 191.436 277.848 191.271 277.964 191.13C278.08 190.989 278.225 190.875 278.39 190.797C278.556 190.719 278.736 190.679 278.919 190.679V190.679L327.036 190.761C327.321 190.761 327.597 190.86 327.817 191.04C328.037 191.221 328.189 191.472 328.245 191.75L357.603 337.87C357.638 338.043 357.635 338.222 357.594 338.394C357.553 338.567 357.476 338.728 357.368 338.868C357.259 339.008 357.122 339.123 356.965 339.205C356.808 339.287 356.635 339.335 356.459 339.345L308.883 341.917H308.813ZM280.427 193.148L309.813 339.387L354.904 336.951L326.021 193.218L280.427 193.148Z" fill="#D8DEE8"/>
<path d="M362.042 339.035C361.757 339.035 361.481 338.936 361.26 338.755C361.04 338.575 360.889 338.323 360.832 338.044L331.535 192.24C331.499 192.061 331.504 191.876 331.548 191.699C331.592 191.522 331.675 191.357 331.791 191.216C331.907 191.075 332.053 190.961 332.218 190.883C332.384 190.805 332.564 190.765 332.747 190.765L378.979 190.844C379.264 190.844 379.54 190.943 379.76 191.123C379.981 191.304 380.132 191.555 380.188 191.834L408.974 335.089C409.009 335.263 409.006 335.441 408.965 335.614C408.925 335.786 408.848 335.947 408.739 336.087C408.631 336.227 408.494 336.342 408.337 336.424C408.18 336.506 408.007 336.553 407.831 336.563L362.111 339.034L362.042 339.035ZM334.254 193.234L363.044 336.512L406.272 334.177L377.964 193.309L334.254 193.234Z" fill="#D8DEE8"/>
<path style="mix-blend-mode:multiply" opacity="0.15" d="M157.324 212.809L112.788 213.067L109.5 196.704L154.087 196.701L157.324 212.809Z" fill="url(#paint8_linear_79_89)"/>
<path style="mix-blend-mode:multiply" opacity="0.15" d="M216.146 212.47L173.464 212.716L170.245 196.7L212.976 196.698L216.146 212.47Z" fill="url(#paint9_linear_79_89)"/>
<path style="mix-blend-mode:multiply" opacity="0.15" d="M272.563 212.144L231.62 212.381L228.469 196.697L269.459 196.694L272.563 212.144Z" fill="url(#paint10_linear_79_89)"/>
<path style="mix-blend-mode:multiply" opacity="0.15" d="M326.72 211.831L287.413 212.058L284.325 196.694L323.679 196.691L326.72 211.831Z" fill="url(#paint11_linear_79_89)"/>
<path d="M331.859 237.402L292.628 238.008L288.717 218.546L328.005 218.224L331.859 237.402Z" fill="url(#paint12_linear_79_89)"/>
<path d="M161.956 237.402L118.816 238.008L114.515 218.546L157.718 218.224L161.956 237.402Z" fill="url(#paint13_linear_79_89)"/>
<path d="M221.62 237.402L178.48 238.008L174.18 218.546L217.383 218.224L221.62 237.402Z" fill="url(#paint14_linear_79_89)"/>
<path d="M277.509 237.402L237.147 238.008L233.125 218.546L273.543 218.224L277.509 237.402Z" fill="url(#paint15_linear_79_89)"/>
<path d="M167.57 263.508L124.43 264.116L120.129 244.652L163.331 244.331L167.57 263.508Z" fill="url(#paint16_linear_79_89)"/>
<path d="M173.534 292.313L130.394 292.919L126.094 273.457L169.297 273.136L173.534 292.313Z" fill="url(#paint17_linear_79_89)"/>
<path d="M384.468 236.566L345.237 237.156L341.326 218.193L380.614 217.879L384.468 236.566Z" fill="url(#paint18_linear_79_89)"/>
<path d="M389.117 260.01L349.886 260.601L345.974 241.637L385.264 241.324L389.117 260.01Z" fill="url(#paint19_linear_79_89)"/>
<path style="mix-blend-mode:multiply" opacity="0.15" d="M378.751 211.531L340.984 211.75L337.957 196.691L375.769 196.688L378.751 211.531Z" fill="url(#paint20_linear_79_89)"/>
<path d="M127.313 71.3488C130.917 70.298 135.732 76.9053 139.735 82.3993C145.724 90.6172 152.721 100.219 150.836 111.749C148.982 123.093 139.244 131.927 136.47 130.663C134.097 129.583 138.66 121.953 135.164 111.749C132.343 103.515 127.67 103.512 124.536 95.4399C120.646 85.4209 122.881 72.6423 127.313 71.3488Z" fill="url(#paint21_linear_79_89)"/>
<path d="M129.096 123.597C147.654 128.099 159.877 135.321 167.015 140.431C170.89 143.201 172.678 144.927 173.637 147.444C179.133 161.79 150.891 183.482 147.882 185.753C146.566 182.691 145.251 179.629 143.937 176.568C146.855 160.57 151.715 155.551 155.78 154.058C156.917 153.639 158.826 153.193 158.789 152.654C158.701 151.383 147.974 153.194 137.723 149.448C127.501 145.713 117.232 136.26 119.065 130.011C119.4 128.87 120.802 125.573 129.096 123.597Z" fill="url(#paint22_linear_79_89)"/>
<path d="M147.091 228.458C147.091 228.458 145.363 229.072 145.357 230.436C145.351 231.799 147.107 237.811 149.014 239.947C150.922 242.083 151.092 238.896 150.974 236.844C150.856 234.791 150.356 230.198 149.885 229.309C149.414 228.42 147.091 228.458 147.091 228.458Z" fill="url(#paint23_linear_79_89)"/>
<path d="M152.637 144.572C156.008 144.506 163.908 143.878 166.012 147.778C167.766 151.033 164.694 155.964 162.802 159.001C157.663 167.248 152.669 168.092 149.159 173.161C147.798 175.123 146.568 177.863 146.179 181.778C145.433 180.04 144.688 178.303 143.943 176.568C146.861 160.57 151.721 155.551 155.786 154.058C156.923 153.639 158.832 153.193 158.795 152.654C158.707 151.383 147.98 153.194 137.729 149.448C128.412 146.044 119.084 137.894 118.892 131.744C133.641 142.312 144.746 144.726 152.637 144.572Z" fill="url(#paint24_linear_79_89)"/>
<path d="M146.092 222.66C146.195 224.762 146.372 226.52 146.539 227.825C146.895 230.714 147.223 231.857 147.672 232.898C148.064 233.804 149.041 235.784 149.509 235.646C149.977 235.507 149.496 233.315 149.125 227.218C149.071 226.334 148.909 223.516 148.909 223.516L146.092 222.66Z" fill="white"/>
<path d="M118.396 124.8C126.644 129.74 133.974 136.068 140.064 143.503C144.833 149.339 152.074 158.216 154.697 171.453C156.096 178.509 155.408 184.838 153.974 197.204C152.841 206.999 151.149 216.721 148.907 226.323L146.441 227.312C144.24 223.27 141.359 216.873 140.331 208.692C138.641 195.308 143.654 191.055 141.247 181.563C139.161 173.341 133.124 168.299 121.045 158.215C111.12 149.931 101.97 145.015 98.5737 134.682C97.997 132.927 97.5067 130.775 98.447 128.804C100.474 124.56 108.228 123.078 118.396 124.8Z" fill="url(#paint25_linear_79_89)"/>
<path d="M109.861 72.1153C112.637 71.52 117.2 71.6375 121.552 68.214C122.862 67.184 127.503 63.5343 126.938 58.3127C126.443 53.7148 122.08 51.2439 121.545 50.9492C118.457 49.2523 115.378 49.6289 111.962 50.0963C107.535 50.7006 106.064 51.9092 102.988 52.7368C95.3756 54.7865 92.8005 50.5041 85.1375 50.8703C75.3421 51.3317 74.4956 58.5568 66.2545 58.7369C57.003 58.9393 55.2266 49.8953 46.0943 48.3637C33.4166 46.2367 14.2326 59.8696 14.6185 75.585C14.8421 84.6647 21.6093 95.0632 30.2528 98.1875C35.2899 100.006 40.7264 99.4289 42.2777 102.701C43.3835 105.03 40.9007 106.824 41.1347 110.887C41.4328 116.119 45.9452 119.79 46.674 120.382C53.4323 125.89 68.5808 123.105 78.9351 115.321C97.5961 101.272 94.7721 75.3573 109.861 72.1153Z" fill="url(#paint26_linear_79_89)"/>
<path d="M88.4265 70.2488C95.5915 69.3681 102.799 68.8781 110.017 68.7812C127.039 68.5505 129.476 70.7073 130.099 72.3029C131.263 75.2799 129.27 76.7684 130.397 81.9557C131.073 85.0577 130.434 86.4717 131.738 89.8045C133.012 93.0523 132.012 94.7983 130.887 102.413C129.446 112.151 128.781 117.1 131.51 121.027C133.406 123.754 135.534 123.986 135.325 125.281C134.894 128.042 125.34 126.519 113.239 131.818C109.737 133.353 106.512 135.242 103.809 136.828C97.4799 140.541 96.3085 141.959 93.3772 143.641C84.1063 148.961 70.1798 149.473 62.8805 143.046C60.1593 140.648 58.1773 137.123 59.0684 135.833C60.2845 134.075 65.7195 138.065 70.7059 135.632C74.0098 134.02 73.3809 131.41 77.2004 128.338C81.7979 124.638 84.993 126.576 88.1225 124.17C93.0031 120.415 90.7827 111.425 89.4116 96.3508C88.6315 87.673 88.3027 78.9606 88.4265 70.2488V70.2488Z" fill="url(#paint27_linear_79_89)"/>
<path d="M106.848 66.7464C104.526 68.1858 100.773 70.0657 100.361 70.5763C99.9477 71.0868 111.73 73.1067 119.06 69.4048C119.06 69.4048 120.197 68.7752 115.782 67.8925C114.84 67.7035 115.025 65.8742 115.151 63.9823L114.266 62.345C114.266 62.345 109.169 65.3071 106.848 66.7464Z" fill="#F4F7FA"/>
<path d="M112.704 61.2286C112.704 61.2286 111.794 65.0867 115.196 66.9949C118.244 68.7022 123.392 61.7019 122.434 59.106C122.114 58.2382 120.966 57.1218 119.768 56.7467C118.925 56.4833 115.734 56.5845 114.367 59.2682C114.008 58.4838 113.368 58.0774 112.937 58.201C112.391 58.3647 112.311 59.359 112.292 59.5838C112.255 60.1615 112.399 60.7364 112.704 61.2286V61.2286Z" fill="#F4F7FA"/>
<path style="mix-blend-mode:multiply" opacity="0.3" d="M117.981 123.087C114.476 124.538 114.004 127.674 109.156 129.453C104.536 131.15 102.982 129.024 98.3696 130.432C91.4443 132.549 88.7946 139.225 87.747 138.595C86.7858 138.018 87.7082 131.632 92.1596 127.494C97.2727 122.743 102.779 124.919 106.052 119.986C107.325 118.066 108.307 115 107.195 112.641C105.691 109.442 101.76 110.557 99.678 107.906C95.936 103.155 104.693 94.5839 102.292 87.338C101.335 84.4474 98.2846 80.8229 88.4504 78.3967C88.583 85.659 89.0018 91.729 89.4206 96.3374C90.7916 111.411 93.0121 120.402 88.1315 124.157C85.0019 126.564 81.8068 124.626 77.2094 128.325C73.3898 131.398 74.0187 134.008 70.7148 135.618C65.7284 138.053 60.2934 134.061 59.0774 135.819C58.1832 137.11 60.1683 140.634 62.8895 143.032C70.1917 149.466 84.1152 148.954 93.3861 143.628C96.3175 141.946 97.4888 140.527 103.818 136.815C106.521 135.23 109.746 133.339 113.248 131.805C121.743 128.084 128.972 127.726 132.683 126.893C125.313 121.99 120.826 121.909 117.981 123.087Z" fill="url(#paint28_linear_79_89)"/>
<path d="M148.366 129.321L109.865 131.192C109.605 131.204 109.351 131.28 109.125 131.412C108.9 131.545 108.71 131.729 108.572 131.951L107.506 133.659C107.386 133.852 107.321 134.074 107.317 134.3C107.314 134.527 107.372 134.75 107.486 134.947C107.6 135.143 107.766 135.304 107.964 135.414C108.163 135.523 108.388 135.576 108.615 135.568L149.398 134.017L148.366 129.321Z" fill="url(#paint29_linear_79_89)"/>
<path d="M188.411 107.907L148.635 108.672C148.057 108.684 147.492 108.846 146.996 109.141C146.499 109.436 146.088 109.856 145.803 110.357L132.024 134.572L174.033 132.9C174.601 132.878 175.154 132.715 175.642 132.425C176.13 132.136 176.539 131.729 176.83 131.242L189.593 109.948C189.72 109.742 189.788 109.506 189.791 109.264C189.795 109.023 189.732 108.785 189.611 108.576C189.49 108.366 189.315 108.194 189.103 108.076C188.892 107.959 188.653 107.9 188.411 107.907Z" fill="url(#paint30_linear_79_89)"/>
<path style="mix-blend-mode:multiply" opacity="0.3" d="M145.799 110.362C146.084 109.86 146.495 109.441 146.991 109.146C147.488 108.85 148.052 108.689 148.63 108.677L149.502 108.659C149.631 109.942 150.026 111.115 150.812 112.062C153.265 115.019 157.339 113.196 160.376 116.325C163.713 119.762 160.631 123.855 163.613 127.054C166.753 130.421 171.83 127.679 177.666 129.834L176.826 131.236C176.534 131.723 176.126 132.13 175.638 132.419C175.149 132.709 174.596 132.872 174.028 132.894L132.024 134.572L145.799 110.362Z" fill="url(#paint31_linear_79_89)"/>
<path d="M114.627 128.036C115.129 126.714 115.63 125.392 116.13 124.071C110.593 122.554 102.933 120.314 95.0761 117.51C93.1388 116.816 92.4234 115.921 91.9048 115.232C87.8811 109.897 98.1267 100.483 97.9434 88.2683C97.8167 79.8019 92.6768 70.1163 88.1479 70.0077C78.944 69.7829 58.6482 108.794 75.7415 125.445C84.2255 133.709 100.077 134.669 114.627 128.036Z" fill="url(#paint32_linear_79_89)"/>
<path d="M116.13 124.071C119.607 122.226 123.77 124.117 124.038 124.243C125.158 124.775 126.174 125.502 127.038 126.391C127.164 126.564 128.677 128.652 128.123 129.321C127.675 129.856 125.977 129.413 123.927 128.139C122.711 127.967 121.479 127.937 120.255 128.049C117.442 128.308 116.153 129.197 115.132 128.43C114.387 127.869 114.128 126.683 114.397 125.8C114.686 124.854 115.542 124.383 116.13 124.071Z" fill="#F4F7FA"/>
<path d="M342.378 419.075C342.56 418.078 345.785 417.175 347.381 418.511C348.176 419.174 348.723 420.519 348.262 421.126C348.095 421.347 348.779 421.735 348.123 421.743C345.952 421.768 342.198 420.062 342.378 419.075Z" fill="url(#paint33_linear_79_89)"/>
<path d="M345.906 419.08L349.252 419.247C348.092 417.142 349.486 411.417 349.486 411.417L345.873 411.523C345.873 411.523 345.963 413.185 346.182 415.655C346.258 416.499 346.119 417.773 345.906 419.08Z" fill="url(#paint34_linear_79_89)"/>
<path d="M345.465 419.029C345.465 419.029 349.459 418.111 349.889 418.903C350.32 419.694 350.657 421.811 348.123 421.743C345.59 421.674 345.246 419.7 345.465 419.029Z" fill="url(#paint35_linear_79_89)"/>
<path d="M300.03 426.314C300.349 425.352 303.669 424.909 305.062 426.463C305.754 427.229 306.106 428.637 305.568 429.175C305.371 429.371 305.994 429.85 305.344 429.77C303.189 429.477 299.712 427.266 300.03 426.314Z" fill="url(#paint36_linear_79_89)"/>
<path d="M303.952 427.237L307.24 427.881C306.395 425.632 308.596 420.166 308.596 420.166L305.006 419.753C305.006 419.753 304.857 421.411 304.718 423.886C304.672 424.733 304.352 425.973 303.952 427.237Z" fill="url(#paint37_linear_79_89)"/>
<path d="M303.091 426.696C303.091 426.696 307.174 426.345 307.49 427.189C307.806 428.033 307.843 430.176 305.344 429.755C302.845 429.334 302.773 427.329 303.091 426.696Z" fill="url(#paint38_linear_79_89)"/>
<path d="M333.289 311.677C334.184 326.967 335.463 342.847 337.127 359.319C339.084 378.379 341.46 396.592 344.131 413.901C347.41 415.027 350.451 413.901 350.451 413.901C350.451 413.901 354.292 407.618 357.223 390.919C359.104 380.202 359.233 380.339 359.254 378.47C359.36 369.04 356.049 366.31 355.417 357.882C354.832 350.084 357.318 347.747 358.803 338.97C359.944 332.218 360.373 322.381 356.771 309.523L333.289 311.677Z" fill="url(#paint39_linear_79_89)"/>
<path style="mix-blend-mode:multiply" opacity="0.3" d="M333.289 311.677C334.184 326.967 335.463 342.847 337.127 359.319C339.083 378.379 341.46 396.592 344.131 413.901C347.41 415.027 350.451 413.901 350.451 413.901C350.409 412.3 350.302 409.882 349.962 406.968C349.068 399.228 347.657 397.032 347.512 392.286C347.326 386.214 349.527 386.034 349.962 380.049C350.637 370.783 345.544 368.588 345.062 360.472C344.554 351.899 349.928 349.078 354.046 338.443C356.476 332.167 358.634 322.745 356.771 309.519L333.289 311.677Z" fill="url(#paint40_linear_79_89)"/>
<path d="M316.812 311.199C306.111 347.282 301.833 384.96 304.171 422.52L308.46 423.71C316.773 415.024 319.741 407.039 320.876 401.208C322.552 392.574 320.025 389.656 322.229 379.9C322.737 377.657 323.449 375.247 331.71 359.073C339.593 343.636 341.21 341.395 342.544 335.853C344.45 327.94 343.948 320.922 343.222 316.221L316.812 311.199Z" fill="url(#paint41_linear_79_89)"/>
<path d="M281.363 278.491L267.258 245.487C267.092 245.1 267.013 244.681 267.026 244.26C267.039 243.839 267.143 243.425 267.332 243.048C267.521 242.672 267.79 242.34 268.12 242.078C268.45 241.815 268.833 241.628 269.243 241.528L295.084 235.26C295.758 235.098 296.468 235.182 297.086 235.497C297.704 235.813 298.188 236.338 298.452 236.979L311.427 268.702C311.58 269.075 311.652 269.476 311.641 269.879C311.629 270.282 311.534 270.678 311.361 271.042C311.188 271.406 310.941 271.73 310.635 271.993C310.33 272.257 309.973 272.454 309.587 272.572L284.89 280.127C284.204 280.337 283.464 280.287 282.813 279.985C282.161 279.683 281.645 279.151 281.363 278.491Z" fill="#26264F"/>
<path d="M282.002 276.905L268.825 246.075C268.671 245.713 268.597 245.322 268.609 244.929C268.621 244.535 268.719 244.149 268.895 243.797C269.072 243.445 269.323 243.136 269.631 242.891C269.94 242.646 270.298 242.471 270.681 242.378L294.823 236.524C295.454 236.37 296.119 236.448 296.698 236.743C297.276 237.038 297.729 237.531 297.975 238.131L310.095 267.762C310.238 268.111 310.306 268.486 310.296 268.862C310.285 269.238 310.196 269.609 310.035 269.949C309.873 270.289 309.642 270.592 309.357 270.838C309.071 271.084 308.737 271.268 308.377 271.378L285.297 278.432C284.656 278.629 283.964 278.583 283.356 278.301C282.747 278.018 282.265 277.521 282.002 276.905V276.905Z" fill="url(#paint42_linear_79_89)"/>
<path d="M273.862 267.841L273.439 263.952L271.196 259.682C270.891 259.1 270.731 258.453 270.731 257.796V253.553L273.439 259.805C273.439 259.805 275.217 258.199 275.895 257.861C276.573 257.523 276.491 258.875 275.979 259.382C275.466 259.89 276.233 264.032 275.725 264.455L275.895 266.986L273.862 267.841Z" fill="url(#paint43_linear_79_89)"/>
<path d="M295.368 243.07C297.474 237.924 301.995 234.965 304.341 233.431C309.888 229.8 313.439 230.464 326.179 228.528C343.158 225.947 345.191 223.503 350.897 225.484C358.393 228.087 362.308 234.882 364.102 237.997C373.146 253.698 362.572 261.678 365.287 292.952C366.396 305.725 369.239 316.824 362.409 323.388C360.971 324.771 359.361 325.493 356.15 326.94C343.392 332.673 331.953 331.685 325.004 330.997C317.354 330.241 313.488 329.807 311.46 327.108C308.22 322.791 311.555 317.317 312.137 307.832C312.555 301.022 311.004 295.627 307.904 284.835C300.687 259.753 291.333 252.927 295.368 243.07Z" fill="url(#paint44_linear_79_89)"/>
<path d="M323.786 219.266C323.013 216.517 324.364 213.969 324.662 213.421C325.91 211.123 326.229 210.809 326.823 210.411L327.65 209.901L327.749 209.864C328.279 209.675 330.088 209.62 330.455 209.698C331.626 209.948 332.872 214.712 332.516 221.447C332.565 221.703 332.611 221.962 332.658 222.224C332.841 223.287 332.988 224.33 333.105 225.35C333.212 226.325 334.595 226.302 335.577 226.243C339.556 225.99 341.502 226.328 341.672 226.92C341.988 228.029 337.27 231.655 331.443 232.471C323.624 232.529 317.262 231.697 317.946 230.467C318.244 229.921 324.308 228.339 326.012 226.771C327.573 225.336 327.445 223.855 327.573 222.794C327.099 222.55 324.355 221.3 323.786 219.266Z" fill="url(#paint45_linear_79_89)"/>
<path d="M325.226 207.994C325.233 210.078 326.217 212.311 326.716 212.666C327.011 212.899 327.266 213.178 327.471 213.493C327.522 213.569 327.562 213.651 327.591 213.738C328.048 215.054 325.951 216.6 326.36 217.19C326.658 217.617 328.075 217.041 328.245 217.415C328.415 217.788 327.221 218.48 327.403 218.903C327.538 219.217 328.266 218.93 328.725 219.411C328.954 219.65 328.887 219.839 329.129 220.572C329.253 220.959 329.413 221.334 329.607 221.691C330.328 222.916 332.373 223.364 332.766 222.873C332.877 222.737 332.783 222.621 332.894 222.163C332.985 221.841 333.119 221.533 333.294 221.248C333.717 220.545 334.738 220.043 335.768 219.302C337.675 217.93 338.194 216.76 338.35 216.365C338.405 216.216 338.44 216.118 338.465 216.042C338.961 214.503 338.963 212.245 338.271 210.855C337.11 208.528 334.495 209.633 332.354 207.327C329.883 204.667 331.355 201.031 330.014 200.629C328.54 200.178 325.212 204.136 325.226 207.994Z" fill="#26264F"/>
<path d="M327.114 216.699C327.625 215.996 328.525 216.657 328.53 217.566C328.534 218.476 327.653 219.421 326.798 219.241C325.942 219.061 326.424 217.645 327.114 216.699Z" fill="url(#paint46_linear_79_89)"/>
<path d="M327.528 215.179L326.336 216.722C326.336 216.722 325.056 218.613 324.308 217.577C323.698 216.73 323.539 216.749 323.501 216.785C323.501 216.785 323.492 216.801 323.491 216.801C323.489 216.801 323.58 216.38 323.671 216.012C323.207 216.673 322.863 217.41 322.655 218.19C322.399 219.152 322.123 220.18 322.667 221.167C322.698 221.225 323.296 222.277 324.413 222.532C324.413 222.532 324.852 222.632 326.707 222.306C326.707 222.306 324.679 220.835 324.649 220.487C324.564 219.537 325.883 219.024 326.862 217.077C327.165 216.475 327.389 215.837 327.528 215.179V215.179Z" fill="#26264F"/>
<path style="mix-blend-mode:multiply" opacity="0.3" d="M331.596 322.035C329.346 317.56 334.862 311.616 331.258 304.788C328.199 298.994 322.64 300.292 320.081 294.981C316.995 288.567 323.709 283.773 323.467 274.014C323.181 262.347 313.131 250.669 307.216 251.687C303.389 252.349 302.894 258.052 300.212 264.294C302.596 269.513 305.378 276.053 307.9 284.835C311 295.627 312.551 301.023 312.132 307.832C311.551 317.317 308.216 322.796 311.456 327.108C313.484 329.808 317.35 330.234 324.999 330.998C331.951 331.685 343.39 332.674 356.145 326.94C357.761 326.214 358.97 325.67 359.956 325.134C340.021 328.123 333.382 325.585 331.596 322.035Z" fill="url(#paint47_linear_79_89)"/>
<path d="M273.105 267.081L276.831 265.475C278.929 267.618 281.6 269.702 283.857 269.025C287.214 268.017 286.375 261.85 290.459 251.014C295.09 238.739 300.341 235.585 302.988 234.443C304.465 233.806 305.486 233.383 306.714 233.682C312.357 235.059 314.222 249.747 312.639 260.737C311.745 266.929 309.998 279.069 300.027 284.832C298.61 285.651 290.813 290.158 283.097 286.608C276.502 283.579 272.429 275.799 273.105 267.081Z" fill="url(#paint48_linear_79_89)"/>
<defs>
<linearGradient id="paint0_linear_79_89" x1="222.317" y1="338.645" x2="411.562" y2="-92.9607" gradientUnits="userSpaceOnUse">
<stop stop-color="#AA80F9"/>
<stop offset="1" stop-color="#6165D7"/>
</linearGradient>
<linearGradient id="paint1_linear_79_89" x1="413.28" y1="146.537" x2="185.183" y2="313.41" gradientUnits="userSpaceOnUse">
<stop stop-color="#E38DDD"/>
<stop offset="1" stop-color="#9571F6"/>
</linearGradient>
<linearGradient id="paint2_linear_79_89" x1="-71.8522" y1="244.331" x2="74.0395" y2="244.331" gradientUnits="userSpaceOnUse">
<stop stop-color="#444B8C"/>
<stop offset="1" stop-color="#26264F"/>
</linearGradient>
<linearGradient id="paint3_linear_79_89" x1="2.32088" y1="244.331" x2="148.213" y2="244.331" gradientUnits="userSpaceOnUse">
<stop stop-color="#444B8C"/>
<stop offset="1" stop-color="#26264F"/>
</linearGradient>
<linearGradient id="paint4_linear_79_89" x1="371.191" y1="240.732" x2="99.6464" y2="258.236" gradientUnits="userSpaceOnUse">
<stop stop-color="#444B8C"/>
<stop offset="1" stop-color="#26264F"/>
</linearGradient>
<linearGradient id="paint5_linear_79_89" x1="65.4945" y1="258.48" x2="433.998" y2="258.48" gradientUnits="userSpaceOnUse">
<stop stop-color="#444B8C"/>
<stop offset="1" stop-color="#26264F"/>
</linearGradient>
<linearGradient id="paint6_linear_79_89" x1="312.643" y1="124.459" x2="235.288" y2="285.551" gradientUnits="userSpaceOnUse">
<stop stop-color="#EBEFF2"/>
<stop offset="1" stop-color="white"/>
</linearGradient>
<linearGradient id="paint7_linear_79_89" x1="98.3845" y1="173.511" x2="376.499" y2="173.511" gradientUnits="userSpaceOnUse">
<stop stop-color="#E38DDD"/>
<stop offset="1" stop-color="#9571F6"/>
</linearGradient>
<linearGradient id="paint8_linear_79_89" x1="111.621" y1="205.52" x2="154.457" y2="196.856" gradientUnits="userSpaceOnUse">
<stop stop-color="#AA80F9"/>
<stop offset="1" stop-color="#6165D7"/>
</linearGradient>
<linearGradient id="paint9_linear_79_89" x1="172.331" y1="205.343" x2="213.384" y2="197.04" gradientUnits="userSpaceOnUse">
<stop stop-color="#AA80F9"/>
<stop offset="1" stop-color="#6165D7"/>
</linearGradient>
<linearGradient id="paint10_linear_79_89" x1="230.522" y1="205.174" x2="269.901" y2="197.208" gradientUnits="userSpaceOnUse">
<stop stop-color="#AA80F9"/>
<stop offset="1" stop-color="#6165D7"/>
</linearGradient>
<linearGradient id="paint11_linear_79_89" x1="286.346" y1="205.01" x2="324.153" y2="197.363" gradientUnits="userSpaceOnUse">
<stop stop-color="#AA80F9"/>
<stop offset="1" stop-color="#6165D7"/>
</linearGradient>
<linearGradient id="paint12_linear_79_89" x1="281.135" y1="201.902" x2="367.915" y2="280.043" gradientUnits="userSpaceOnUse">
<stop stop-color="#E38DDD"/>
<stop offset="1" stop-color="#9571F6"/>
</linearGradient>
<linearGradient id="paint13_linear_79_89" x1="107.004" y1="200.032" x2="199.989" y2="283.759" gradientUnits="userSpaceOnUse">
<stop stop-color="#FFC444"/>
<stop offset="1" stop-color="#F36F56"/>
</linearGradient>
<linearGradient id="paint14_linear_79_89" x1="166.668" y1="200.032" x2="259.653" y2="283.759" gradientUnits="userSpaceOnUse">
<stop stop-color="#E38DDD"/>
<stop offset="1" stop-color="#9571F6"/>
</linearGradient>
<linearGradient id="paint15_linear_79_89" x1="225.563" y1="201.361" x2="314.136" y2="281.118" gradientUnits="userSpaceOnUse">
<stop stop-color="#FFC444"/>
<stop offset="1" stop-color="#F36F56"/>
</linearGradient>
<linearGradient id="paint16_linear_79_89" x1="112.618" y1="226.14" x2="205.602" y2="309.867" gradientUnits="userSpaceOnUse">
<stop stop-color="#E38DDD"/>
<stop offset="1" stop-color="#9571F6"/>
</linearGradient>
<linearGradient id="paint17_linear_79_89" x1="118.582" y1="254.944" x2="211.567" y2="338.671" gradientUnits="userSpaceOnUse">
<stop stop-color="#FFC444"/>
<stop offset="1" stop-color="#F36F56"/>
</linearGradient>
<linearGradient id="paint18_linear_79_89" x1="333.957" y1="201.495" x2="420.109" y2="279.072" gradientUnits="userSpaceOnUse">
<stop stop-color="#FFC444"/>
<stop offset="1" stop-color="#F36F56"/>
</linearGradient>
<linearGradient id="paint19_linear_79_89" x1="338.605" y1="224.939" x2="424.759" y2="302.515" gradientUnits="userSpaceOnUse">
<stop stop-color="#E38DDD"/>
<stop offset="1" stop-color="#9571F6"/>
</linearGradient>
<linearGradient id="paint20_linear_79_89" x1="339.948" y1="204.854" x2="376.274" y2="197.506" gradientUnits="userSpaceOnUse">
<stop stop-color="#AA80F9"/>
<stop offset="1" stop-color="#6165D7"/>
</linearGradient>
<linearGradient id="paint21_linear_79_89" x1="151.149" y1="101.011" x2="122.533" y2="101.011" gradientUnits="userSpaceOnUse">
<stop stop-color="#FFC444"/>
<stop offset="1" stop-color="#F36F56"/>
</linearGradient>
<linearGradient id="paint22_linear_79_89" x1="200.428" y1="154.675" x2="144.936" y2="154.675" gradientUnits="userSpaceOnUse">
<stop stop-color="#311944"/>
<stop offset="1" stop-color="#A03976"/>
</linearGradient>
<linearGradient id="paint23_linear_79_89" x1="155.36" y1="215.254" x2="145.165" y2="257.354" gradientUnits="userSpaceOnUse">
<stop stop-color="#444B8C"/>
<stop offset="1" stop-color="#26264F"/>
</linearGradient>
<linearGradient id="paint24_linear_79_89" x1="174.343" y1="156.761" x2="118.85" y2="156.761" gradientUnits="userSpaceOnUse">
<stop stop-color="#311944"/>
<stop offset="1" stop-color="#A03976"/>
</linearGradient>
<linearGradient id="paint25_linear_79_89" x1="170.798" y1="120.262" x2="121.112" y2="180.704" gradientUnits="userSpaceOnUse">
<stop stop-color="#311944"/>
<stop offset="1" stop-color="#A03976"/>
</linearGradient>
<linearGradient id="paint26_linear_79_89" x1="32.183" y1="37.1543" x2="95.1649" y2="95.5567" gradientUnits="userSpaceOnUse">
<stop stop-color="#444B8C"/>
<stop offset="1" stop-color="#26264F"/>
</linearGradient>
<linearGradient id="paint27_linear_79_89" x1="85.0288" y1="122.052" x2="138.414" y2="73.9974" gradientUnits="userSpaceOnUse">
<stop stop-color="#FFC444"/>
<stop offset="1" stop-color="#F36F56"/>
</linearGradient>
<linearGradient id="paint28_linear_79_89" x1="86.7843" y1="124.002" x2="140.171" y2="75.9472" gradientUnits="userSpaceOnUse">
<stop stop-color="#FFC444"/>
<stop offset="1" stop-color="#F36F56"/>
</linearGradient>
<linearGradient id="paint29_linear_79_89" x1="107.316" y1="132.445" x2="149.398" y2="132.445" gradientUnits="userSpaceOnUse">
<stop stop-color="#E38DDD"/>
<stop offset="1" stop-color="#9571F6"/>
</linearGradient>
<linearGradient id="paint30_linear_79_89" x1="132.024" y1="121.237" x2="189.785" y2="121.237" gradientUnits="userSpaceOnUse">
<stop stop-color="#E38DDD"/>
<stop offset="1" stop-color="#9571F6"/>
</linearGradient>
<linearGradient id="paint31_linear_79_89" x1="176.309" y1="105.931" x2="148.751" y2="133.301" gradientUnits="userSpaceOnUse">
<stop stop-color="#E38DDD"/>
<stop offset="1" stop-color="#9571F6"/>
</linearGradient>
<linearGradient id="paint32_linear_79_89" x1="107.174" y1="121.694" x2="66.4113" y2="81.5334" gradientUnits="userSpaceOnUse">
<stop stop-color="#FFC444"/>
<stop offset="1" stop-color="#F36F56"/>
</linearGradient>
<linearGradient id="paint33_linear_79_89" x1="340.568" y1="416.139" x2="347.664" y2="420.861" gradientUnits="userSpaceOnUse">
<stop stop-color="#444B8C"/>
<stop offset="1" stop-color="#26264F"/>
</linearGradient>
<linearGradient id="paint34_linear_79_89" x1="347.3" y1="420.815" x2="347.851" y2="409.744" gradientUnits="userSpaceOnUse">
<stop stop-color="#FFC444"/>
<stop offset="1" stop-color="#F36F56"/>
</linearGradient>
<linearGradient id="paint35_linear_79_89" x1="341.101" y1="415.338" x2="348.198" y2="420.059" gradientUnits="userSpaceOnUse">
<stop stop-color="#444B8C"/>
<stop offset="1" stop-color="#26264F"/>
</linearGradient>
<linearGradient id="paint36_linear_79_89" x1="298.659" y1="423.209" x2="305.023" y2="428.875" gradientUnits="userSpaceOnUse">
<stop stop-color="#444B8C"/>
<stop offset="1" stop-color="#26264F"/>
</linearGradient>
<linearGradient id="paint37_linear_79_89" x1="305.088" y1="429.165" x2="307.22" y2="418.287" gradientUnits="userSpaceOnUse">
<stop stop-color="#FFC444"/>
<stop offset="1" stop-color="#F36F56"/>
</linearGradient>
<linearGradient id="paint38_linear_79_89" x1="299.3" y1="422.49" x2="305.663" y2="428.157" gradientUnits="userSpaceOnUse">
<stop stop-color="#444B8C"/>
<stop offset="1" stop-color="#26264F"/>
</linearGradient>
<linearGradient id="paint39_linear_79_89" x1="333.289" y1="361.962" x2="359.613" y2="361.962" gradientUnits="userSpaceOnUse">
<stop stop-color="#311944"/>
<stop offset="1" stop-color="#6B3976"/>
</linearGradient>
<linearGradient id="paint40_linear_79_89" x1="333.289" y1="361.962" x2="357.469" y2="361.962" gradientUnits="userSpaceOnUse">
<stop stop-color="#311944"/>
<stop offset="1" stop-color="#6B3976"/>
</linearGradient>
<linearGradient id="paint41_linear_79_89" x1="381.985" y1="379.957" x2="309.576" y2="366.875" gradientUnits="userSpaceOnUse">
<stop stop-color="#311944"/>
<stop offset="0.74" stop-color="#5C3169"/>
<stop offset="1" stop-color="#6B3976"/>
</linearGradient>
<linearGradient id="paint42_linear_79_89" x1="276.44" y1="190.64" x2="323.988" y2="433.422" gradientUnits="userSpaceOnUse">
<stop stop-color="#AA80F9"/>
<stop offset="1" stop-color="#6165D7"/>
</linearGradient>
<linearGradient id="paint43_linear_79_89" x1="271.52" y1="257.167" x2="295.967" y2="296.487" gradientUnits="userSpaceOnUse">
<stop stop-color="#FFC444"/>
<stop offset="1" stop-color="#F36F56"/>
</linearGradient>
<linearGradient id="paint44_linear_79_89" x1="294.394" y1="278.145" x2="367.838" y2="278.145" gradientUnits="userSpaceOnUse">
<stop stop-color="#FF9085"/>
<stop offset="1" stop-color="#FB6FBB"/>
</linearGradient>
<linearGradient id="paint45_linear_79_89" x1="323.648" y1="214.915" x2="341.649" y2="256.269" gradientUnits="userSpaceOnUse">
<stop stop-color="#FFC444"/>
<stop offset="1" stop-color="#F36F56"/>
</linearGradient>
<linearGradient id="paint46_linear_79_89" x1="322.3" y1="206.428" x2="342.399" y2="252.601" gradientUnits="userSpaceOnUse">
<stop stop-color="#FFC444"/>
<stop offset="1" stop-color="#F36F56"/>
</linearGradient>
<linearGradient id="paint47_linear_79_89" x1="292.823" y1="271.82" x2="337.804" y2="314.824" gradientUnits="userSpaceOnUse">
<stop stop-color="#FF9085"/>
<stop offset="1" stop-color="#FB6FBB"/>
</linearGradient>
<linearGradient id="paint48_linear_79_89" x1="273.032" y1="260.771" x2="313.177" y2="260.771" gradientUnits="userSpaceOnUse">
<stop stop-color="#FF9085"/>
<stop offset="1" stop-color="#FB6FBB"/>
</linearGradient>
</defs>
</svg>
