<svg width="27" height="24" viewBox="0 0 27 24" fill="none" xmlns="http://www.w3.org/2000/svg">
<rect x="12" width="15" height="24" fill="#110134"/>
<rect width="24" height="24" rx="12" fill="#110134"/>
<path d="M18.0305 16.0323L15.4321 13.5476C15.969 12.7739 16.2832 11.8474 16.2832 10.8515C16.2832 8.15301 13.9873 5.95758 11.1652 5.95758C8.34312 5.95758 6.04718 8.15301 6.04718 10.8515C6.04718 13.5501 8.34312 15.7455 11.1652 15.7455C12.2067 15.7455 13.1755 15.445 13.9847 14.9316L16.5831 17.4163C16.9823 17.7985 17.6313 17.7985 18.0305 17.4163C18.4302 17.0341 18.4302 16.4145 18.0305 16.0323ZM7.58258 10.8515C7.58258 8.96247 9.18964 7.42577 11.1652 7.42577C13.1407 7.42577 14.7478 8.96247 14.7478 10.8515C14.7478 12.7406 13.1407 14.2773 11.1652 14.2773C9.18964 14.2773 7.58258 12.7406 7.58258 10.8515Z" fill="white"/>
</svg>
