<svg width="47" height="47" viewBox="0 0 47 47" fill="none" xmlns="http://www.w3.org/2000/svg">
<g clip-path="url(#clip0_232_33)">
<path d="M40.828 25.9799C40.828 25.2714 41.0642 24.5628 41.0642 23.6181C41.0642 22.6734 41.0642 21.9648 40.828 21.2563L45.7878 17.2412C46.2602 16.7688 46.2602 16.2965 46.024 15.8241L41.3004 7.55779C41.0642 7.32161 40.5919 7.08543 39.8833 7.32161L33.9788 9.68342C32.7979 8.73869 31.3808 8.03015 29.9637 7.32161L29.019 1.1809C29.2552 0.472362 28.5465 0 28.0743 0H18.627C18.1546 0 17.4461 0.472362 17.4461 0.944724L16.5014 7.32161C15.0843 7.79397 13.9034 8.73869 12.4863 9.68342L6.81801 7.32161C6.10947 7.08543 5.63711 7.32161 5.16465 7.79397L0.441043 16.0603C0.204863 16.2965 0.441043 17.005 0.913405 17.4774L5.8732 21.2563C5.8732 21.9648 5.63702 22.6734 5.63702 23.6181C5.63702 24.5628 5.63702 25.2714 5.8732 25.9799L0.913405 29.995C0.441043 30.4674 0.441043 30.9397 0.677224 31.4122L5.40084 39.6785C5.63702 39.9147 6.10928 40.1508 6.81792 39.9147L12.7224 37.5529C13.9033 38.4976 15.3204 39.2061 16.7375 39.9147L17.6822 46.0554C17.6822 46.5277 18.1546 47.0001 18.8631 47.0001H28.3103C28.7828 47.0001 29.4913 46.5276 29.4913 46.0554L30.436 39.9147C31.8531 39.2061 33.2701 38.4976 34.451 37.5529L40.3556 39.9147C40.828 40.1508 41.5365 39.9147 41.7727 39.4422L46.4963 31.1759C46.7325 30.7035 46.7325 29.995 46.2601 29.7588L40.828 25.9799ZM23.3507 31.8844C18.8632 31.8844 15.0843 28.1055 15.0843 23.6181C15.0843 19.1307 18.8632 15.3518 23.3507 15.3518C27.8381 15.3518 31.617 19.1307 31.617 23.6181C31.617 28.1055 27.8381 31.8844 23.3507 31.8844Z" fill="white"/>
</g>
<defs>
<clipPath id="clip0_232_33">
<rect width="47" height="47" fill="white"/>
</clipPath>
</defs>
</svg>
