<svg width="440" height="449" viewBox="0 0 440 449" fill="none" xmlns="http://www.w3.org/2000/svg">
<path d="M311.784 18.1768V403.436C311.784 409.197 306.865 410.437 301.287 410.619L110.104 420.513L107.209 420.608C105.803 420.659 104.402 420.424 103.089 419.92C101.776 419.415 100.579 418.65 99.5687 417.671C98.5587 416.691 97.7568 415.518 97.2113 414.221C96.6657 412.924 96.3878 411.53 96.394 410.123V11.4901C96.3871 10.0824 96.6647 8.68788 97.2099 7.39025C97.7552 6.09262 98.557 4.91865 99.5671 3.93886C100.577 2.95908 101.775 2.19368 103.088 1.68866C104.401 1.18364 105.803 0.949415 107.209 1.00005L111.138 1.12881L303.021 16.0675C308.599 16.2499 311.784 12.416 311.784 18.1768Z" fill="url(#paint0_linear_85_11)"/>
<path d="M317.744 18.1767V403.435C317.744 409.196 313.187 414.06 307.609 414.243L113.164 420.608C111.758 420.658 110.357 420.424 109.045 419.919C107.732 419.414 106.535 418.649 105.525 417.67C104.515 416.691 103.713 415.517 103.168 414.22C102.622 412.923 102.344 411.529 102.351 410.122V11.49C102.344 10.0825 102.621 8.68808 103.166 7.39056C103.712 6.09303 104.513 4.91914 105.523 3.93937C106.533 2.95961 107.73 2.19419 109.043 1.68907C110.356 1.18396 111.758 0.949571 113.164 0.99999L307.606 7.37094C313.184 7.55337 317.744 12.4159 317.744 18.1767Z" fill="url(#paint1_linear_85_11)"/>
<path d="M311.447 39.3561V396.252C311.447 401.631 307.19 406.166 301.978 406.33L119.14 412.077C117.831 412.121 116.526 411.901 115.304 411.429C114.082 410.956 112.967 410.242 112.027 409.329C111.088 408.416 110.342 407.322 109.834 406.113C109.327 404.905 109.069 403.606 109.075 402.295V33.7731C109.068 32.4609 109.327 31.1608 109.834 29.9506C110.34 28.7403 111.086 27.6447 112.025 26.729C112.965 25.8133 114.079 25.0964 115.301 24.6211C116.524 24.1457 117.829 23.9216 119.14 23.9622L301.978 29.2984C307.19 29.4532 311.447 33.9785 311.447 39.3561Z" fill="url(#paint2_linear_85_11)"/>
<path d="M215.493 16.1763C215.501 16.6511 215.412 17.1224 215.233 17.562C215.054 18.0016 214.787 18.4002 214.449 18.7338C214.112 19.0673 213.71 19.3289 213.268 19.5028C212.827 19.6766 212.355 19.759 211.88 19.745C209.889 19.6853 208.265 17.9883 208.265 15.9556C208.258 15.481 208.347 15.0098 208.527 14.5706C208.706 14.1314 208.973 13.7332 209.311 13.4C209.649 13.0668 210.051 12.8055 210.492 12.6319C210.934 12.4583 211.406 12.376 211.88 12.3899C213.872 12.4528 215.493 14.1482 215.493 16.1763Z" fill="#5777FF"/>
<path d="M283.074 256.093L137.05 258.052C136.612 258.059 136.178 257.979 135.772 257.816C135.366 257.653 134.996 257.411 134.685 257.103C134.374 256.796 134.127 256.429 133.959 256.025C133.791 255.621 133.705 255.187 133.707 254.75V222.755C133.707 221.866 134.058 221.012 134.684 220.38C135.31 219.749 136.16 219.39 137.05 219.383L283.074 218.396C283.495 218.398 283.912 218.483 284.3 218.647C284.689 218.812 285.04 219.051 285.336 219.352C285.631 219.653 285.863 220.01 286.02 220.401C286.177 220.793 286.254 221.212 286.248 221.633V252.789C286.248 254.59 284.828 256.07 283.074 256.093Z" fill="#6DE3FF"/>
<path d="M282.741 315.026L137.399 318.487C136.917 318.501 136.438 318.417 135.99 318.242C135.541 318.066 135.132 317.802 134.788 317.465C134.443 317.128 134.17 316.726 133.984 316.281C133.799 315.836 133.704 315.359 133.707 314.877V283.583C133.71 282.598 134.098 281.653 134.787 280.95C135.477 280.247 136.415 279.842 137.399 279.821L282.741 277.327C284.679 277.293 286.248 278.878 286.248 280.867V311.342C286.248 313.33 284.679 314.98 282.741 315.026Z" fill="#6DE3FF"/>
<path d="M268.33 122.798C268.33 154.912 242.8 180.949 210.99 180.953C178.818 180.953 152.483 154.4 152.483 121.628C152.483 88.8567 178.825 62.8332 210.99 63.4863C242.8 64.1347 268.33 90.6855 268.33 122.798Z" fill="#78EBFF"/>
<path d="M234.632 104.816C234.632 118.047 224.074 128.675 211.005 128.552C197.891 128.43 187.224 117.532 187.224 104.212C187.224 90.8923 197.891 80.2659 211.005 80.4775C224.074 80.6875 234.632 91.5837 234.632 104.816Z" fill="url(#paint3_linear_85_11)"/>
<path d="M210.99 180.953C224.479 180.973 237.533 176.181 247.809 167.437C244.43 149.945 229.272 136.642 210.99 136.502C192.584 136.363 177.157 149.591 173.693 167.275C183.844 175.824 196.866 180.955 210.99 180.953Z" fill="url(#paint4_linear_85_11)"/>
<path d="M231.09 242.485L151.395 243.36C150.749 243.366 150.107 243.243 149.508 242.999C148.909 242.755 148.364 242.394 147.905 241.938C147.446 241.482 147.082 240.939 146.835 240.341C146.587 239.743 146.46 239.102 146.462 238.454C146.467 237.141 146.986 235.883 147.908 234.949C148.83 234.014 150.082 233.479 151.394 233.459L231.089 232.726C233.724 232.701 235.878 234.872 235.878 237.555C235.879 240.239 233.725 242.455 231.09 242.485Z" fill="url(#paint5_linear_85_11)"/>
<path d="M158.388 298.638C158.384 300.317 157.727 301.929 156.556 303.131C155.385 304.333 153.791 305.031 152.114 305.077C151.293 305.096 150.477 304.95 149.713 304.648C148.95 304.346 148.255 303.894 147.669 303.318C147.083 302.742 146.619 302.055 146.303 301.296C145.988 300.538 145.828 299.723 145.833 298.902C145.836 297.222 146.494 295.609 147.667 294.406C148.84 293.204 150.435 292.507 152.114 292.464C152.934 292.445 153.75 292.592 154.512 292.895C155.275 293.197 155.969 293.65 156.554 294.225C157.139 294.801 157.602 295.488 157.917 296.246C158.232 297.004 158.392 297.817 158.388 298.638V298.638Z" fill="url(#paint6_linear_85_11)"/>
<path d="M181.885 298.157C181.885 301.622 179.101 304.49 175.661 304.563C174.845 304.582 174.033 304.436 173.274 304.134C172.515 303.833 171.825 303.382 171.243 302.808C170.662 302.235 170.201 301.55 169.889 300.795C169.577 300.04 169.419 299.23 169.426 298.413C169.426 294.941 172.219 292.073 175.661 292.005C176.477 291.989 177.287 292.136 178.045 292.439C178.802 292.741 179.491 293.192 180.072 293.766C180.652 294.339 181.111 295.024 181.423 295.778C181.734 296.532 181.891 297.341 181.885 298.157Z" fill="url(#paint7_linear_85_11)"/>
<path d="M205.193 297.68C205.193 301.129 202.435 303.987 199.02 304.06C198.208 304.077 197.401 303.93 196.647 303.628C195.893 303.327 195.207 302.877 194.63 302.305C194.053 301.733 193.597 301.051 193.288 300.299C192.98 299.547 192.825 298.741 192.834 297.929C192.834 294.472 195.605 291.614 199.02 291.548C199.831 291.534 200.637 291.682 201.389 291.984C202.142 292.287 202.826 292.737 203.402 293.309C203.977 293.881 204.432 294.562 204.74 295.313C205.048 296.064 205.202 296.869 205.193 297.68Z" fill="url(#paint8_linear_85_11)"/>
<path d="M228.313 297.206C228.313 300.643 225.574 303.492 222.185 303.561C218.796 303.63 216.057 300.901 216.057 297.458C216.057 294.015 218.805 291.173 222.185 291.104C225.564 291.035 228.313 293.771 228.313 297.206Z" fill="url(#paint9_linear_85_11)"/>
<path d="M251.254 296.737C251.254 300.159 248.536 302.992 245.179 303.064C241.822 303.136 239.092 300.415 239.092 296.986C239.092 293.556 241.818 290.724 245.179 290.658C248.54 290.592 251.254 293.314 251.254 296.737Z" fill="url(#paint10_linear_85_11)"/>
<path d="M210.981 182.379C195.028 182.379 179.999 176.06 168.662 164.585C157.325 153.109 151.059 137.841 151.059 121.631C151.059 105.285 157.401 90.0646 168.917 78.7729C180.235 67.6758 195.183 61.7387 211.019 62.0637C226.767 62.3841 241.539 68.8792 252.612 80.3534C263.635 91.7272 269.785 106.956 269.754 122.799C269.754 138.722 263.663 153.681 252.596 164.917C241.528 176.154 226.741 182.376 210.99 182.379H210.981ZM209.8 64.9027C195.169 64.9027 181.4 70.5241 170.912 80.8087C159.946 91.5608 153.907 106.058 153.907 121.631C153.907 137.085 159.865 151.628 170.685 162.58C181.483 173.508 195.794 179.528 210.978 179.528H210.987C241.818 179.528 266.906 154.081 266.906 122.799C266.906 91.5179 241.809 65.5374 210.961 64.9135C210.575 64.9058 210.186 64.9027 209.8 64.9027Z" fill="#78EBFF"/>
<path style="mix-blend-mode:multiply" opacity="0.3" d="M317.744 17.9575C317.744 15.207 316.675 12.5643 314.763 10.5879C312.851 8.61151 310.246 7.45628 307.499 7.36636L201.462 3.89575C240.794 45.6013 249.637 80.5925 250.641 104.504C253.522 172.757 194.758 202.493 205.685 277.136C208.681 297.598 215.304 310.45 217.892 345.798C219.626 369.635 218.823 393.59 215.496 417.257L307.602 414.243C313.18 414.059 317.736 409.197 317.736 403.436L317.744 17.9575Z" fill="url(#paint11_linear_85_11)"/>
<path style="mix-blend-mode:multiply" opacity="0.3" d="M160.742 210.239C161.861 177.362 150.602 163.617 147.618 160.251C145.511 157.873 143.559 156.189 128.99 144.155C118.166 135.212 109.144 127.8 102.741 122.55L102.351 398.852C106.712 363.501 115.096 336.84 121.475 319.816C139.331 272.16 159.308 252.423 160.742 210.239Z" fill="url(#paint12_linear_85_11)"/>
<path d="M347.938 341.144C354.315 337.289 351.643 316.862 342.27 302.791C328.96 282.809 301.098 274.076 295.696 280.378C290.159 286.827 307.646 309.605 310.48 313.304C320.774 326.727 340.395 345.704 347.938 341.144Z" fill="url(#paint13_linear_85_11)"/>
<path d="M420.355 425.628C419.261 427.075 419.204 429.566 420.367 430.687C421.53 431.807 422.988 430.754 427.414 430.492C432.164 430.212 433.497 431.22 436.634 430.046C437.901 429.571 440.118 428.495 439.993 427.57C439.904 426.919 438.706 426.686 434.686 425.731C428.982 424.368 428.997 424.264 427.804 424.175C424.808 423.951 421.798 423.722 420.355 425.628Z" fill="url(#paint14_linear_85_11)"/>
<path d="M420.264 417.81L425.248 424.423C425.227 424.883 423.446 427.057 421.184 426.935L415.196 420.942L420.264 417.81Z" fill="url(#paint15_linear_85_11)"/>
<path d="M394.604 442.472C393.543 443.942 393.532 446.433 394.724 447.531C395.916 448.629 397.345 447.543 401.771 447.188C406.511 446.808 407.867 447.787 410.978 446.547C412.236 446.046 414.43 444.924 414.284 444.001C414.182 443.352 412.979 443.145 408.941 442.27C403.21 441.027 403.222 440.923 402.027 440.858C399.023 440.696 396.008 440.532 394.604 442.472Z" fill="url(#paint16_linear_85_11)"/>
<path d="M394.413 434.798L399.401 441.417C399.38 441.877 397.599 444.051 395.337 443.928L389.349 437.935L394.413 434.798Z" fill="url(#paint17_linear_85_11)"/>
<path d="M243.503 283.658C254.094 279.584 265.283 277.281 276.621 276.843C292.634 276.245 305.495 275.77 314.658 283.005C345.146 307.096 330.199 370.58 327.996 377.642C325.376 386.041 320.391 391.745 320.391 391.745C318.199 394.24 315.673 396.419 312.884 398.22C289.951 413.396 275.697 422.841 260.642 418.984C258.639 418.471 249.539 415.305 244.516 407.737C243.621 406.386 243.06 404.656 242.919 402.238C240.578 362.277 245.288 322.154 243.503 283.658Z" fill="url(#paint18_linear_85_11)"/>
<path style="mix-blend-mode:multiply" opacity="0.3" d="M256.651 331.29C253.587 322.923 256.753 313.342 249.94 309.164C247.443 307.631 244.341 306.985 240.963 307.06C241.381 336.476 241.972 365.864 242.703 396.562C242.943 406.702 244.21 407.204 254.04 416.084C265.426 426.375 274.796 423.057 291.617 419.68C269.578 406.134 264.096 398.766 266.338 386.722C268.953 372.701 294.609 368.55 293.571 358.583C292.476 348.025 263.337 349.583 256.651 331.29Z" fill="url(#paint19_linear_85_11)"/>
<path d="M250.535 284.19C242.964 279.959 225.563 291.996 216.044 302.372C211.623 307.195 196.232 323.987 201.02 345.591C201.799 349.117 205.401 365.573 221.431 373.103C235.785 379.848 254.728 377.263 269.577 366.398C271.596 364.653 273.616 362.909 275.636 361.164L281.556 354.944C276.496 351.45 270.846 348.9 264.88 347.418C253.045 344.449 247.721 348.608 244.795 345.384C241.194 341.415 249.222 334.572 251.326 317.1C251.894 312.384 258.99 288.916 250.535 284.19Z" fill="url(#paint20_linear_85_11)"/>
<path d="M264.276 414.158C265.208 430.806 271.463 421.586 285.622 406.647C300.535 390.916 335.623 363.265 359.043 373.822C376.485 381.684 374.792 404.941 402.677 419.538C406.468 421.52 410.436 423.142 414.53 424.383L423.593 415.996C421.973 407.303 414.735 374.147 384.482 353.259C377.168 348.2 363.21 338.477 345.559 338.704C297.843 339.323 263.42 398.801 264.276 414.158Z" fill="url(#paint21_linear_85_11)"/>
<path d="M242.294 406.435C242.493 416.122 248.815 425.001 255.929 429.336C271.738 438.96 295.413 428.57 308.673 417.959C324.808 405.04 324.802 392.383 333.046 392.446C345.858 392.542 348.092 423.195 376.681 438.16C380.472 440.142 384.441 441.765 388.534 443.007L397.596 434.62C392.639 415.849 384.963 402.209 379.302 393.72C372.243 383.131 365.447 372.94 352.286 365.553C338.429 357.775 325.188 357.414 319.564 357.327C284.085 356.774 241.773 381.172 242.294 406.435Z" fill="url(#paint22_linear_85_11)"/>
<path d="M338.622 348.251L250.779 364.102L276.27 370.785L339.964 353.92L338.622 348.251Z" fill="url(#paint23_linear_85_11)"/>
<path d="M248.143 367.036C248.3 367.836 248.699 368.569 249.286 369.135C249.874 369.701 250.621 370.072 251.426 370.198L281.563 375.693L280.201 368.058L250.786 364.102C250.405 364.067 250.02 364.122 249.664 364.262C249.307 364.402 248.988 364.623 248.732 364.908C248.476 365.193 248.289 365.533 248.187 365.902C248.085 366.272 248.07 366.66 248.143 367.036V367.036Z" fill="url(#paint24_linear_85_11)"/>
<path d="M262.258 360.137C261.697 360.123 263.623 353.211 266.241 353.452C268.86 353.692 282.354 358.347 284.022 361.025L285.691 363.703C285.691 363.703 280.482 365.152 276.99 364.692C273.499 364.232 266.821 360.257 262.258 360.137Z" fill="url(#paint25_linear_85_11)"/>
<path d="M277.51 313.207L275.581 370.834C275.515 372.827 278.492 375.551 280.471 375.306L372.064 362.648C372.796 362.558 373.475 362.22 373.988 361.69C374.502 361.16 374.819 360.471 374.887 359.736L382.241 303.66C382.432 301.624 378.667 299.828 376.635 300.036L280.407 310.091C279.629 310.172 278.907 310.533 278.375 311.106C277.842 311.679 277.535 312.425 277.51 313.207V313.207Z" fill="url(#paint26_linear_85_11)"/>
<path d="M279.739 314.714L277.811 372.341C277.796 372.808 277.881 373.274 278.063 373.705C278.244 374.136 278.517 374.523 278.862 374.839C279.207 375.155 279.616 375.392 280.062 375.534C280.507 375.676 280.978 375.72 281.442 375.663L374.294 364.156C375.026 364.066 375.705 363.727 376.218 363.198C376.732 362.668 377.049 361.979 377.117 361.244L382.421 305.07C382.466 304.593 382.405 304.112 382.242 303.661C382.079 303.211 381.817 302.802 381.477 302.464C381.137 302.127 380.726 301.87 380.274 301.711C379.822 301.551 379.34 301.495 378.864 301.545L282.637 311.599C281.859 311.68 281.137 312.041 280.604 312.613C280.072 313.186 279.764 313.932 279.739 314.714V314.714Z" fill="url(#paint27_linear_85_11)"/>
<path style="mix-blend-mode:multiply" opacity="0.3" d="M337.721 353.47C329.323 350.639 331.694 343.839 321.462 336.372C307.965 326.52 295.401 332.193 290.241 324.154C288.634 321.649 287.652 317.638 289.605 310.874L282.637 311.602C281.86 311.683 281.138 312.043 280.605 312.615C280.073 313.187 279.765 313.933 279.739 314.714L277.811 372.341C277.796 372.809 277.881 373.274 278.063 373.705C278.244 374.137 278.517 374.523 278.862 374.839C279.207 375.155 279.616 375.392 280.062 375.534C280.507 375.676 280.978 375.72 281.442 375.663L374.294 364.157C375.026 364.066 375.705 363.727 376.218 363.198C376.732 362.668 377.049 361.979 377.117 361.244L377.85 353.492C374.548 351.947 371.027 350.924 367.412 350.458C353.529 348.727 347.391 356.729 337.721 353.47Z" fill="url(#paint28_linear_85_11)"/>
<path d="M277.298 254.895C277.525 259.549 277.283 264.214 276.578 268.819C275.997 272.543 275.516 273.516 274.893 274.316C274.759 274.484 274.616 274.644 274.465 274.796C273.886 275.376 266.604 276.789 264.46 277.296C264.231 277.348 260.029 278.369 258.822 280.632C258.802 280.672 258.787 280.715 258.779 280.759C258.364 283.02 271.273 290.19 284.244 287.86C292.183 286.434 299.275 281.607 298.74 279.231C298.206 276.855 290.277 278.429 287.739 274.161C285.972 271.194 287.664 266.822 289.721 263.176C287.443 259.28 279.567 258.792 277.298 254.895Z" fill="url(#paint29_linear_85_11)"/>
<path d="M294.33 261.821C299.402 260.348 302.675 242.868 298.407 240.756C296.366 239.744 294.854 243.362 286.718 246.602C280.207 249.195 277.456 248.358 275.652 251.217C273.872 254.04 274.968 258.13 275.528 261.027C275.77 262.286 276.585 262.879 277.227 263.94C278.116 265.399 279.502 267.714 281.748 271.569C282.283 270.472 282.911 269.424 283.627 268.436C283.949 267.996 285.225 266.279 289.004 263.71C291.419 262.062 293.749 261.99 294.33 261.821Z" fill="url(#paint30_linear_85_11)"/>
<path d="M278.131 267.941C278.131 267.941 280.22 274.042 286.835 275.058C292.758 275.969 296.505 263.055 293.391 259.452C292.35 258.248 289.943 257.305 287.792 257.433C286.521 257.505 286.006 257.912 283.927 257.988C282.009 258.058 281.542 257.744 280.892 258.083C280.08 258.509 279.267 259.812 279.565 263.894C278.7 262.514 277.459 261.791 276.413 262.028C276.049 262.133 275.722 262.336 275.467 262.615C274.321 263.931 275.265 266.144 278.131 267.941Z" fill="url(#paint31_linear_85_11)"/>
<path d="M280.802 257.241C281.038 257.514 279.944 258.374 279.552 259.847C278.786 262.707 280.946 266.819 283.861 267.772C285.585 268.335 286.303 267.38 289.285 267.716C290.737 267.884 292.153 268.284 293.479 268.901C293.695 272.273 292.137 275.238 289.698 276.236C287.071 277.309 284.373 275.708 283.244 275.04C282.49 274.592 280.069 273.164 279.235 270.469C278.366 267.662 280.091 266.466 278.835 264.42C278.2 263.386 277.202 262.779 276.515 260.894C276.368 260.489 276.251 260.074 276.167 259.652C278.027 258.398 280.462 256.85 280.802 257.241Z" fill="url(#paint32_linear_85_11)"/>
<path d="M291.1 269.607C291.1 269.607 289.694 269.987 287.541 269.383C287.437 269.354 287.313 269.359 287.288 269.411C287.192 269.607 288.385 270.843 289.753 270.766C290.725 270.711 291.627 270 291.554 269.754C291.521 269.65 291.312 269.616 291.1 269.607Z" fill="url(#paint33_linear_85_11)"/>
<path d="M1.13372 200.376C-1.30068 193.22 0.40447 184.994 4.16102 179.244C10.5098 169.53 18.7858 172.905 27.0741 162.132C32.4362 155.163 37.3142 149.21 43.2662 144.754C47.6463 141.474 58.0089 137.759 62.0566 140.345C74.1704 148.061 51.9451 213.751 27.4433 217.49C17.6398 218.986 4.79375 211.131 1.13372 200.376Z" fill="url(#paint34_linear_85_11)"/>
<path d="M47.6141 407.817C48.489 409.679 49.019 411.685 49.1783 413.737C49.2543 414.726 49.242 415.721 49.1415 416.708C48.4306 417.756 45.1061 421.357 40.6173 422.246C37.8397 422.795 33.3371 420.439 38.4372 417.25C43.5373 414.062 44.3003 413.295 42.8004 405.14C42.4159 403.043 42.5676 402.275 42.8954 402.128C43.663 401.787 45.8599 405.004 47.6141 407.817Z" fill="url(#paint35_linear_85_11)"/>
<path d="M71.1354 414.042C72.0116 415.902 72.5431 417.906 72.7041 419.956C72.7802 420.946 72.7679 421.94 72.6674 422.927C71.9565 423.976 68.632 427.577 64.1432 428.466C61.3656 429.016 56.863 426.66 61.9631 423.471C67.0632 420.283 67.8262 419.515 66.3263 411.361C65.9418 409.264 66.0934 408.498 66.4213 408.349C67.1904 408.015 69.3812 411.229 71.1354 414.042Z" fill="url(#paint36_linear_85_11)"/>
<path d="M95.5989 243.759L100.655 274.585C96.7073 284.968 93.3559 295.568 90.6167 306.334C80.1054 347.65 73.5499 387.444 73.0703 415.949L66.1287 418.462C61.983 402.798 63.2362 379.112 59.5501 351.182C55.1946 318.183 58.156 292.387 56.6393 292.296C55.1854 292.209 51.1163 315.826 51.1086 342.795C51.101 371.308 47.8239 394.258 49.9366 410.737L41.6192 411.234C33.9422 389.443 30.5886 363.479 26.7003 329.149C24.0008 305.308 20.8157 273.637 36.7336 240.961C38.3238 237.699 43.8728 230.456 44.9131 228.667C63.1703 232.16 77.3432 240.265 95.5989 243.759Z" fill="url(#paint37_linear_85_11)"/>
<path style="mix-blend-mode:multiply" opacity="0.25" d="M90.6183 306.334C93.3569 295.568 96.7078 284.968 100.655 274.585L95.5989 243.759C77.3463 240.265 63.1734 232.16 44.9193 228.667C43.879 230.456 38.3315 237.699 36.7397 240.961C31.3776 251.977 28.1849 262.882 26.4108 273.401C61.7257 273.015 71.9458 280.373 74.7587 287.156C79.2383 297.953 65.6155 308.903 70.4353 330.754C71.8846 337.325 74.0493 340.565 74.3036 348.796C74.6376 359.599 71.114 360.648 70.5624 371.637C69.9588 383.662 65.7963 395.414 67.7481 403.937C68.7257 408.209 69.9701 412.415 71.474 416.531L73.075 415.951C73.5514 387.444 80.107 347.65 90.6183 306.334Z" fill="url(#paint38_linear_85_11)"/>
<path d="M80.4655 101.168C81.5977 102.682 79.9155 104.714 79.58 112.108C79.4547 114.856 79.5474 117.609 79.8573 120.342C79.9216 122.165 80.0243 123.856 80.1637 125.349C80.2679 126.443 80.3797 127.3 80.5375 128.211C80.8281 129.899 81.2423 131.564 81.7769 133.191C81.794 133.242 81.7914 133.298 81.7696 133.347C81.7477 133.396 81.7083 133.435 81.659 133.456L81.6406 133.464C81.6136 133.473 81.5852 133.476 81.5569 133.474C81.5286 133.472 81.501 133.464 81.4757 133.452C81.4503 133.439 81.4278 133.421 81.4093 133.4C81.3908 133.378 81.3767 133.353 81.3679 133.326C80.8267 131.678 80.4069 129.993 80.1116 128.284C79.9584 127.364 79.8389 126.495 79.7347 125.388C79.6597 124.602 79.5969 123.757 79.5432 122.873C79.2172 125.664 79.3988 128.491 80.0794 131.217C82.5935 141.653 74.4982 148.522 68.1173 148.798C60.7635 149.116 55.7722 143.28 54.2294 141.373C48.0124 133.677 46.8159 121.138 52.6621 111.964C60.3254 99.9491 77.6895 97.4565 80.4655 101.168Z" fill="url(#paint39_linear_85_11)"/>
<path d="M61.8589 111.219C62.173 110.053 63.5978 105.296 67.9488 102.314C76.2033 96.6578 89.434 101.197 97.0206 107.859C104.96 114.829 101.658 119.652 109.461 127.393C117.937 135.8 123.885 132.129 135.658 140.25C140.293 143.444 152.779 152.054 153.614 165.483C154.335 177.087 146.133 188.709 136.097 193.192C118.915 200.868 97.399 187.16 87.2462 174.553C77.5102 162.464 84.0795 159.504 70.2407 136.154C65.2371 127.706 59.5057 119.931 61.8589 111.219Z" fill="url(#paint40_linear_85_11)"/>
<path d="M49.4847 145.062C43.2034 151.42 41.5181 159.063 41.0233 162.478C39.4913 173.105 43.6569 181.774 44.6358 184.05C49.2641 194.808 47.5605 216.012 20.5829 261.673C23.1475 263.819 31.9889 279.644 36.1713 272.051C41.872 261.7 67.7389 188.867 42.7913 275.178C42.4634 276.316 45.005 276.087 46.1617 276.518C55.6009 280.075 65.6196 281.843 75.7055 281.73C93.428 281.509 106.931 275.5 114.069 271.635C107.89 257.255 103.823 242.056 101.994 226.51C97.8572 191.123 106.464 162.586 112.462 147.195C106.993 143.411 89.6684 132.455 69.1729 136.004C64.0559 136.876 56.0878 138.365 49.4847 145.062Z" fill="url(#paint41_linear_85_11)"/>
<path style="mix-blend-mode:multiply" opacity="0.3" d="M101.985 226.507C97.8481 191.12 106.455 162.583 112.453 147.192C106.984 143.408 89.6593 132.452 69.1637 136.001C64.0559 136.884 56.0878 138.374 49.4771 145.07C44.4796 150.129 42.3945 156.002 41.5013 159.911C41.6545 159.885 41.8644 159.851 42.1141 159.816C54.7381 158.073 69.3169 168.233 74.3007 177.846C82.6181 193.887 63.4845 206.994 63.9625 232.419C64.2214 246.162 70.1917 262.412 88.4398 280.554C97.4053 278.988 106.058 275.977 114.06 271.64C107.88 257.257 103.812 242.055 101.985 226.507V226.507Z" fill="url(#paint42_linear_85_11)"/>
<path d="M73.9543 123.267C72.1588 126.918 70.639 131.487 72.6184 134.551C73.8241 136.418 75.8219 137.464 77.7936 138.438C82.4526 140.755 84.6158 139.818 85.535 141.219C87.5604 144.313 81.8275 156.115 72.4774 157.141C63.1718 158.16 54.7502 148.015 56.1505 143.73C57.4144 139.864 66.576 141.077 68.2138 136.19C69.038 133.737 67.5274 130.999 66.2037 129.149L65.1083 129.245L73.9543 123.267Z" fill="url(#paint43_linear_85_11)"/>
<path style="mix-blend-mode:multiply" opacity="0.4" d="M85.535 141.219C84.6158 139.814 82.4525 140.759 77.7936 138.438C75.8219 137.459 73.8241 136.418 72.6184 134.551C70.639 131.485 72.1588 126.918 73.9543 123.267L65.1084 129.245L66.2038 129.149C67.2547 130.617 68.4022 132.641 68.4283 134.643C69.0142 135.038 69.5427 135.513 69.9986 136.053C69.0561 138.067 68.4505 140.222 68.2061 142.432C67.958 144.731 67.7741 146.428 68.7577 148.038C69.8301 149.793 71.6685 150.409 73.2665 150.95C76.8269 152.145 80.1606 151.748 82.3407 151.223C85.3619 147.438 86.6718 142.952 85.535 141.219Z" fill="url(#paint44_linear_85_11)"/>
<path d="M72.3228 126.787C72.3228 126.787 72.6292 131.476 68.0714 132.261C62.4503 133.228 59.3541 118.481 60.5797 117.405C62.003 116.155 63.797 118.334 67.3421 116.879C68.8389 116.266 69.8485 114.041 70.996 116.065C72.3013 118.364 72.2661 122.836 72.2661 122.836C72.2661 122.836 73.4197 121.512 73.8456 122.804C74.4033 124.495 73.2818 125.798 72.3228 126.787Z" fill="url(#paint45_linear_85_11)"/>
<path d="M63.9379 109.706C61.9462 111.356 60.5858 114.817 61.6475 116.738C63.1795 119.497 68.7515 117.36 70.5946 120.733C71.402 122.211 71.1477 124.121 71.644 124.141C72.0546 124.157 72.433 122.854 72.7823 121.787C74.702 115.901 76.2708 115.381 75.992 113.611C75.4266 110.011 68.0223 106.314 63.9379 109.706Z" fill="url(#paint46_linear_85_11)"/>
<path d="M96.9639 146.686C103.162 147.078 103.786 145.219 110.646 150.248C130.347 164.689 143.126 205.423 123.591 225.109C112.724 236.059 92.8948 242.738 76.0256 234.386C62.2925 227.583 57.2276 214.133 55.9974 210.532C56.2241 206.922 56.4503 203.312 56.6761 199.7C64.3898 208.027 71.0159 210.124 75.8265 210.388C84.009 210.826 87.4071 205.942 101.402 205.176C106.855 204.869 109.9 205.419 110.536 203.936C111.851 200.87 99.9514 195.921 94.3487 186.823C90.2597 180.185 87.7855 168.527 96.9639 146.686Z" fill="url(#paint47_linear_85_11)"/>
<path d="M72.7869 116.22C71.3896 117.463 73.6708 122.293 78.293 131.902C81.138 137.818 82.5597 140.775 83.5356 142.09C88.7844 149.175 98.2539 155.195 108.413 155.681C115.384 156.014 116.674 153.454 122.256 154.991C130.682 157.311 134.819 165.086 135.248 164.744C135.721 164.365 131.148 154.488 120.838 145.582C112.401 138.291 109.73 139.948 96.3496 129.676C95.3783 128.931 91.2709 125.758 85.4262 122.06C78.555 117.711 74.1764 114.984 72.7869 116.22Z" fill="url(#paint48_linear_85_11)"/>
<path d="M17.9386 170.621L32.2662 206.086C32.3861 206.411 32.5784 206.704 32.8285 206.943C33.0785 207.182 33.3798 207.361 33.7093 207.466L50.2247 212.715C50.6122 212.838 51.0256 212.855 51.4219 212.764C51.8181 212.672 52.1825 212.476 52.4772 212.196C52.7718 211.915 52.9858 211.561 53.0967 211.17C53.2077 210.778 53.2115 210.364 53.1079 209.971L44.2758 176.439C44.0735 175.672 43.496 173.968 42.0329 173.503L21.9157 167.678C20.1248 167.154 17.2905 168.866 17.9386 170.621Z" fill="url(#paint49_linear_85_11)"/>
<path d="M17.7578 171.182L30.443 205.507C30.5626 205.831 30.7546 206.124 31.0044 206.363C31.2542 206.603 31.5553 206.781 31.8847 206.886L48.4015 212.135C48.789 212.259 49.2025 212.275 49.5987 212.184C49.9949 212.093 50.3594 211.897 50.654 211.616C50.9486 211.336 51.1626 210.982 51.2736 210.59C51.3845 210.199 51.3884 209.785 51.2848 209.391L42.4557 175.861C42.3563 175.483 42.1615 175.138 41.8899 174.857C41.6184 174.576 41.2793 174.371 40.9053 174.259L20.5292 168.216C20.1254 168.097 19.6964 168.093 19.2902 168.204C18.884 168.314 18.5166 168.536 18.2291 168.844C17.9416 169.152 17.7452 169.533 17.662 169.946C17.5788 170.359 17.6119 170.787 17.7578 171.182V171.182Z" fill="url(#paint50_linear_85_11)"/>
<path d="M57.5586 202.603L55.8212 200.981C55.8212 200.981 53.3516 197.609 51.4917 195.966C49.6318 194.322 47.8148 193.999 45.8354 195.573C43.856 197.147 45.5382 199.754 46.9645 202.025C47.8332 203.405 50.2814 204.285 52.319 204.815C53.753 205.188 56.2609 207.06 56.2609 207.06L57.5586 202.603Z" fill="url(#paint51_linear_85_11)"/>
<path d="M19.6836 187.087L21.3198 185.362C21.3198 185.362 24.7178 182.919 26.3755 181.07C28.0332 179.221 28.3671 177.402 26.8121 175.414C25.2571 173.425 22.6373 175.081 20.3546 176.487C18.9666 177.345 18.0704 179.787 17.5234 181.821C17.1404 183.253 15.2484 185.747 15.2484 185.747L19.6836 187.087Z" fill="url(#paint52_linear_85_11)"/>
<path d="M14.9695 183.601L21.3229 186.769C21.9709 187.596 29.6878 197.732 25.5681 207.451C25.0319 208.715 23.0066 213.495 19.011 214.349C12.8446 215.655 3.86229 207.198 4.15031 198.119C4.34641 192.029 8.68053 186.438 14.9695 183.601Z" fill="url(#paint53_linear_85_11)"/>
<defs>
<linearGradient id="paint0_linear_85_11" x1="356.717" y1="345.731" x2="172.379" y2="188.576" gradientUnits="userSpaceOnUse">
<stop stop-color="#0037FF"/>
<stop offset="1" stop-color="#0012E0"/>
</linearGradient>
<linearGradient id="paint1_linear_85_11" x1="202.861" y1="400.699" x2="228.147" y2="-278.654" gradientUnits="userSpaceOnUse">
<stop stop-color="#0037FF"/>
<stop offset="1" stop-color="#0012E0"/>
</linearGradient>
<linearGradient id="paint2_linear_85_11" x1="109.075" y1="218.022" x2="311.447" y2="218.022" gradientUnits="userSpaceOnUse">
<stop stop-color="#787CFF"/>
<stop offset="1" stop-color="#745BFF"/>
</linearGradient>
<linearGradient id="paint3_linear_85_11" x1="172.662" y1="26.2247" x2="350.19" y2="389.012" gradientUnits="userSpaceOnUse">
<stop stop-color="#236CFF"/>
<stop offset="1" stop-color="#0051FF"/>
</linearGradient>
<linearGradient id="paint4_linear_85_11" x1="148.332" y1="38.1312" x2="325.859" y2="400.918" gradientUnits="userSpaceOnUse">
<stop stop-color="#236CFF"/>
<stop offset="1" stop-color="#0051FF"/>
</linearGradient>
<linearGradient id="paint5_linear_85_11" x1="104.066" y1="59.7928" x2="281.593" y2="422.579" gradientUnits="userSpaceOnUse">
<stop stop-color="#236CFF"/>
<stop offset="1" stop-color="#0051FF"/>
</linearGradient>
<linearGradient id="paint6_linear_85_11" x1="48.5783" y1="86.9468" x2="226.104" y2="449.731" gradientUnits="userSpaceOnUse">
<stop stop-color="#236CFF"/>
<stop offset="1" stop-color="#0051FF"/>
</linearGradient>
<linearGradient id="paint7_linear_85_11" x1="67.7711" y1="77.5537" x2="245.298" y2="440.34" gradientUnits="userSpaceOnUse">
<stop stop-color="#236CFF"/>
<stop offset="1" stop-color="#0051FF"/>
</linearGradient>
<linearGradient id="paint8_linear_85_11" x1="86.8101" y1="68.2364" x2="264.339" y2="431.022" gradientUnits="userSpaceOnUse">
<stop stop-color="#236CFF"/>
<stop offset="1" stop-color="#0051FF"/>
</linearGradient>
<linearGradient id="paint9_linear_85_11" x1="105.695" y1="58.993" x2="283.226" y2="421.784" gradientUnits="userSpaceOnUse">
<stop stop-color="#236CFF"/>
<stop offset="1" stop-color="#0051FF"/>
</linearGradient>
<linearGradient id="paint10_linear_85_11" x1="124.426" y1="49.826" x2="301.953" y2="412.618" gradientUnits="userSpaceOnUse">
<stop stop-color="#236CFF"/>
<stop offset="1" stop-color="#0051FF"/>
</linearGradient>
<linearGradient id="paint11_linear_85_11" x1="201.461" y1="210.576" x2="317.741" y2="210.576" gradientUnits="userSpaceOnUse">
<stop stop-color="#787CFF"/>
<stop offset="1" stop-color="#745BFF"/>
</linearGradient>
<linearGradient id="paint12_linear_85_11" x1="100.998" y1="260.643" x2="199.972" y2="264.322" gradientUnits="userSpaceOnUse">
<stop stop-color="#787CFF"/>
<stop offset="1" stop-color="#745BFF"/>
</linearGradient>
<linearGradient id="paint13_linear_85_11" x1="316.695" y1="318.068" x2="328.123" y2="302.442" gradientUnits="userSpaceOnUse">
<stop stop-color="#AA80F9"/>
<stop offset="1" stop-color="#6165D7"/>
</linearGradient>
<linearGradient id="paint14_linear_85_11" x1="438.944" y1="425.38" x2="420.398" y2="432.281" gradientUnits="userSpaceOnUse">
<stop stop-color="#444B8C"/>
<stop offset="1" stop-color="#26264F"/>
</linearGradient>
<linearGradient id="paint15_linear_85_11" x1="429.716" y1="426.258" x2="413.513" y2="416.034" gradientUnits="userSpaceOnUse">
<stop stop-color="#FFC444"/>
<stop offset="1" stop-color="#F36F56"/>
</linearGradient>
<linearGradient id="paint16_linear_85_11" x1="413.229" y1="440.604" x2="394.877" y2="447.901" gradientUnits="userSpaceOnUse">
<stop stop-color="#444B8C"/>
<stop offset="1" stop-color="#26264F"/>
</linearGradient>
<linearGradient id="paint17_linear_85_11" x1="403.892" y1="443.39" x2="387.69" y2="433.165" gradientUnits="userSpaceOnUse">
<stop stop-color="#FFC444"/>
<stop offset="1" stop-color="#F36F56"/>
</linearGradient>
<linearGradient id="paint18_linear_85_11" x1="246.575" y1="386.182" x2="292.663" y2="323.153" gradientUnits="userSpaceOnUse">
<stop stop-color="#AA80F9"/>
<stop offset="1" stop-color="#6165D7"/>
</linearGradient>
<linearGradient id="paint19_linear_85_11" x1="248.176" y1="386.347" x2="295.792" y2="326.023" gradientUnits="userSpaceOnUse">
<stop stop-color="#AA80F9"/>
<stop offset="1" stop-color="#6165D7"/>
</linearGradient>
<linearGradient id="paint20_linear_85_11" x1="222.555" y1="358.31" x2="263.15" y2="296.395" gradientUnits="userSpaceOnUse">
<stop stop-color="#AA80F9"/>
<stop offset="1" stop-color="#6165D7"/>
</linearGradient>
<linearGradient id="paint21_linear_85_11" x1="333.764" y1="444.581" x2="366.864" y2="342.833" gradientUnits="userSpaceOnUse">
<stop stop-color="#444B8C"/>
<stop offset="1" stop-color="#26264F"/>
</linearGradient>
<linearGradient id="paint22_linear_85_11" x1="343.013" y1="360.254" x2="301.368" y2="464.391" gradientUnits="userSpaceOnUse">
<stop stop-color="#444B8C"/>
<stop offset="1" stop-color="#26264F"/>
</linearGradient>
<linearGradient id="paint23_linear_85_11" x1="314.949" y1="390.475" x2="298.463" y2="362.526" gradientUnits="userSpaceOnUse">
<stop stop-color="#311944"/>
<stop offset="1" stop-color="#893976"/>
</linearGradient>
<linearGradient id="paint24_linear_85_11" x1="260.15" y1="356.03" x2="269.3" y2="382.121" gradientUnits="userSpaceOnUse">
<stop stop-color="#311944"/>
<stop offset="1" stop-color="#893976"/>
</linearGradient>
<linearGradient id="paint25_linear_85_11" x1="262.433" y1="361.21" x2="284.391" y2="356.913" gradientUnits="userSpaceOnUse">
<stop stop-color="#FFC444"/>
<stop offset="1" stop-color="#F36F56"/>
</linearGradient>
<linearGradient id="paint26_linear_85_11" x1="341.562" y1="349.585" x2="318.104" y2="321.374" gradientUnits="userSpaceOnUse">
<stop stop-color="#444B8C"/>
<stop offset="1" stop-color="#26264F"/>
</linearGradient>
<linearGradient id="paint27_linear_85_11" x1="305.143" y1="402.312" x2="343.762" y2="305.016" gradientUnits="userSpaceOnUse">
<stop stop-color="#311944"/>
<stop offset="1" stop-color="#893976"/>
</linearGradient>
<linearGradient id="paint28_linear_85_11" x1="277.834" y1="344.021" x2="379.035" y2="335.93" gradientUnits="userSpaceOnUse">
<stop stop-color="#311944"/>
<stop offset="1" stop-color="#893976"/>
</linearGradient>
<linearGradient id="paint29_linear_85_11" x1="269.518" y1="301.559" x2="293.237" y2="247.066" gradientUnits="userSpaceOnUse">
<stop stop-color="#FFC444"/>
<stop offset="1" stop-color="#F36F56"/>
</linearGradient>
<linearGradient id="paint30_linear_85_11" x1="263.416" y1="291.158" x2="295.437" y2="242.965" gradientUnits="userSpaceOnUse">
<stop stop-color="#444B8C"/>
<stop offset="1" stop-color="#26264F"/>
</linearGradient>
<linearGradient id="paint31_linear_85_11" x1="286.117" y1="259.965" x2="277.02" y2="315.318" gradientUnits="userSpaceOnUse">
<stop stop-color="#FFC444"/>
<stop offset="1" stop-color="#F36F56"/>
</linearGradient>
<linearGradient id="paint32_linear_85_11" x1="271.465" y1="287.431" x2="294.373" y2="252.953" gradientUnits="userSpaceOnUse">
<stop stop-color="#444B8C"/>
<stop offset="1" stop-color="#26264F"/>
</linearGradient>
<linearGradient id="paint33_linear_85_11" x1="290.832" y1="267.845" x2="288.585" y2="274.555" gradientUnits="userSpaceOnUse">
<stop stop-color="#FFC444"/>
<stop offset="1" stop-color="#F36F56"/>
</linearGradient>
<linearGradient id="paint34_linear_85_11" x1="14.7641" y1="138.535" x2="43.4805" y2="190.464" gradientUnits="userSpaceOnUse">
<stop stop-color="#AA80F9"/>
<stop offset="1" stop-color="#6165D7"/>
</linearGradient>
<linearGradient id="paint35_linear_85_11" x1="37.0093" y1="411.767" x2="49.5346" y2="413.118" gradientUnits="userSpaceOnUse">
<stop stop-color="#AA80F9"/>
<stop offset="1" stop-color="#6165D7"/>
</linearGradient>
<linearGradient id="paint36_linear_85_11" x1="60.5318" y1="417.995" x2="73.0571" y2="419.346" gradientUnits="userSpaceOnUse">
<stop stop-color="#AA80F9"/>
<stop offset="1" stop-color="#6165D7"/>
</linearGradient>
<linearGradient id="paint37_linear_85_11" x1="24.94" y1="324.109" x2="101.516" y2="322.773" gradientUnits="userSpaceOnUse">
<stop stop-color="#444B8C"/>
<stop offset="1" stop-color="#26264F"/>
</linearGradient>
<linearGradient id="paint38_linear_85_11" x1="21.6897" y1="318.805" x2="95.2672" y2="326.429" gradientUnits="userSpaceOnUse">
<stop stop-color="#444B8C"/>
<stop offset="1" stop-color="#26264F"/>
</linearGradient>
<linearGradient id="paint39_linear_85_11" x1="186.325" y1="201.299" x2="51.0656" y2="111.117" gradientUnits="userSpaceOnUse">
<stop stop-color="#311944"/>
<stop offset="1" stop-color="#6B3976"/>
</linearGradient>
<linearGradient id="paint40_linear_85_11" x1="184.37" y1="204.228" x2="49.1123" y2="114.046" gradientUnits="userSpaceOnUse">
<stop stop-color="#311944"/>
<stop offset="1" stop-color="#6B3976"/>
</linearGradient>
<linearGradient id="paint41_linear_85_11" x1="50.6976" y1="188.25" x2="152.392" y2="295.991" gradientUnits="userSpaceOnUse">
<stop stop-color="#AA80F9"/>
<stop offset="1" stop-color="#6165D7"/>
</linearGradient>
<linearGradient id="paint42_linear_85_11" x1="59.449" y1="181.5" x2="169.697" y2="268.458" gradientUnits="userSpaceOnUse">
<stop stop-color="#AA80F9"/>
<stop offset="1" stop-color="#6165D7"/>
</linearGradient>
<linearGradient id="paint43_linear_85_11" x1="70.9808" y1="169.649" x2="69.9079" y2="108.473" gradientUnits="userSpaceOnUse">
<stop stop-color="#FFC444"/>
<stop offset="1" stop-color="#F36F56"/>
</linearGradient>
<linearGradient id="paint44_linear_85_11" x1="71.8691" y1="162.034" x2="78.906" y2="112.433" gradientUnits="userSpaceOnUse">
<stop stop-color="#FFC444"/>
<stop offset="1" stop-color="#F36F56"/>
</linearGradient>
<linearGradient id="paint45_linear_85_11" x1="66.2584" y1="118.669" x2="75.2336" y2="169.951" gradientUnits="userSpaceOnUse">
<stop stop-color="#FFC444"/>
<stop offset="1" stop-color="#F36F56"/>
</linearGradient>
<linearGradient id="paint46_linear_85_11" x1="190.091" y1="195.649" x2="54.8322" y2="105.467" gradientUnits="userSpaceOnUse">
<stop stop-color="#311944"/>
<stop offset="1" stop-color="#6B3976"/>
</linearGradient>
<linearGradient id="paint47_linear_85_11" x1="83.4215" y1="181.153" x2="137.361" y2="245.137" gradientUnits="userSpaceOnUse">
<stop stop-color="#AA80F9"/>
<stop offset="1" stop-color="#6165D7"/>
</linearGradient>
<linearGradient id="paint48_linear_85_11" x1="186.497" y1="201.039" x2="51.2372" y2="110.857" gradientUnits="userSpaceOnUse">
<stop stop-color="#311944"/>
<stop offset="1" stop-color="#6B3976"/>
</linearGradient>
<linearGradient id="paint49_linear_85_11" x1="64.2388" y1="171.674" x2="46.6692" y2="182.733" gradientUnits="userSpaceOnUse">
<stop stop-color="#FFC444"/>
<stop offset="1" stop-color="#F36F56"/>
</linearGradient>
<linearGradient id="paint50_linear_85_11" x1="13.691" y1="182.563" x2="83.9669" y2="204.742" gradientUnits="userSpaceOnUse">
<stop stop-color="#FF9085"/>
<stop offset="1" stop-color="#FB6FBB"/>
</linearGradient>
<linearGradient id="paint51_linear_85_11" x1="47.8169" y1="195.811" x2="63.8293" y2="215.943" gradientUnits="userSpaceOnUse">
<stop stop-color="#FFC444"/>
<stop offset="1" stop-color="#F36F56"/>
</linearGradient>
<linearGradient id="paint52_linear_85_11" x1="26.5988" y1="173.336" x2="6.20217" y2="189.334" gradientUnits="userSpaceOnUse">
<stop stop-color="#FFC444"/>
<stop offset="1" stop-color="#F36F56"/>
</linearGradient>
<linearGradient id="paint53_linear_85_11" x1="26.322" y1="187.972" x2="-3.43278" y2="220.493" gradientUnits="userSpaceOnUse">
<stop stop-color="#AA80F9"/>
<stop offset="1" stop-color="#6165D7"/>
</linearGradient>
</defs>
</svg>
