<svg xmlns="http://www.w3.org/2000/svg" xmlns:xlink="http://www.w3.org/1999/xlink" viewBox="0 0 191.9 344.06"><defs><style>.cls-1{fill:#006070;}.cls-2{fill:#003370;}.cls-3{fill:#000d36;}.cls-4{fill:url(#ЃезымЯнный_градиент_22);}.cls-5{fill:url(#ЃезымЯнный_градиент_22-2);}.cls-6{fill:url(#ЃезымЯнный_градиент_30);}.cls-7{fill:#460030;}.cls-8{fill:url(#ЃезымЯнный_градиент_8);}.cls-9{fill:#910000;}.cls-10,.cls-29{fill:#930000;}.cls-11{fill:#e1784e;}.cls-12{fill:#c4552d;}.cls-13{fill:url(#ЃезымЯнный_градиент_30-2);}.cls-14,.cls-18{fill:#fff;}.cls-15{fill:url(#ЃезымЯнный_градиент_3);}.cls-16,.cls-20{fill:#590800;}.cls-17{fill:url(#ЃезымЯнный_градиент_3-2);}.cls-18,.cls-29,.cls-48,.cls-53,.cls-56{opacity:0.5;}.cls-19{fill:url(#ЃезымЯнный_градиент_3-3);}.cls-20{opacity:0.59;}.cls-21{fill:#c13c32;opacity:0.3;}.cls-22{fill:#6df2bf;}.cls-23{fill:#57d19c;}.cls-24{fill:url(#ЃезымЯнный_градиент_99);}.cls-25{fill:url(#ЃезымЯнный_градиент_99-2);}.cls-26{fill:#a00000;}.cls-27{fill:url(#ЃезымЯнный_градиент_99-3);}.cls-28{fill:#e71400;}.cls-30{fill:url(#ЃезымЯнный_градиент_30-3);}.cls-31{fill:#550547;}.cls-32{fill:#ffbf10;}.cls-33{fill:#ffa110;}.cls-34{fill:url(#ЃезымЯнный_градиент_22-3);}.cls-35{fill:url(#ЃезымЯнный_градиент_22-4);}.cls-36{fill:#003363;}.cls-37{fill:url(#ЃезымЯнный_градиент_30-4);}.cls-38,.cls-48{fill:#94001f;}.cls-39{fill:#b8aaff;}.cls-40{fill:url(#ЃезымЯнный_градиент_30-5);}.cls-41{fill:url(#ЃезымЯнный_градиент_3-4);}.cls-42{fill:url(#ЃезымЯнный_градиент_3-5);}.cls-43{fill:url(#ЃезымЯнный_градиент_99-4);}.cls-44{fill:url(#ЃезымЯнный_градиент_99-5);}.cls-45{fill:#dbccff;}.cls-46{fill:url(#ЃезымЯнный_градиент_52);}.cls-47{fill:url(#ЃезымЯнный_градиент_11);}.cls-49{fill:#00427f;}.cls-50{fill:url(#ЃезымЯнный_градиент_99-6);}.cls-51{fill:url(#ЃезымЯнный_градиент_99-7);}.cls-52,.cls-53{fill:#0077a6;}.cls-54{fill:url(#ЃезымЯнный_градиент_99-8);}.cls-55{fill:url(#ЃезымЯнный_градиент_30-6);}.cls-56{fill:#00274a;}</style><linearGradient id="ЃезымЯнный_градиент_22" x1="27.23" y1="339" x2="48.89" y2="339" gradientTransform="matrix(-1, 0, 0, 1, 60.95, 0)" gradientUnits="userSpaceOnUse"><stop offset="0" stop-color="#ddf8fd"/><stop offset="1" stop-color="#8290c5"/></linearGradient><linearGradient id="ЃезымЯнный_градиент_22-2" x1="-42.22" y1="338.83" x2="-2.29" y2="338.83" xlink:href="#ЃезымЯнный_градиент_22"/><linearGradient id="ЃезымЯнный_градиент_30" x1="-15.33" y1="206.16" x2="-16.79" y2="195.45" gradientTransform="matrix(-1, 0, 0, 1, 60.95, 0)" gradientUnits="userSpaceOnUse"><stop offset="0" stop-color="#fdc38b"/><stop offset="1" stop-color="#fda37d"/></linearGradient><linearGradient id="ЃезымЯнный_градиент_8" x1="21.73" y1="325.99" x2="21.73" y2="172.91" gradientTransform="matrix(-1, 0, 0, 1, 60.95, 0)" gradientUnits="userSpaceOnUse"><stop offset="0" stop-color="#754a86"/><stop offset="1" stop-color="#3e0033"/></linearGradient><linearGradient id="ЃезымЯнный_градиент_30-2" x1="19.62" y1="68.96" x2="12.12" y2="14.18" xlink:href="#ЃезымЯнный_градиент_30"/><linearGradient id="ЃезымЯнный_градиент_3" x1="16.04" y1="38.68" x2="21.69" y2="38.68" gradientTransform="matrix(0, -1, -1, 0, 80.14, 57.21)" gradientUnits="userSpaceOnUse"><stop offset="0" stop-color="#a43113"/><stop offset="1" stop-color="#6f160d"/></linearGradient><linearGradient id="ЃезымЯнный_градиент_3-2" x1="-0.87" y1="41.37" x2="4.25" y2="41.37" gradientTransform="matrix(-1, 0, 0, 1, 60.95, 0)" xlink:href="#ЃезымЯнный_градиент_3"/><linearGradient id="ЃезымЯнный_градиент_3-3" x1="-15.98" y1="22.12" x2="40.24" y2="22.12" gradientTransform="matrix(-1, 0, 0, 1, 60.95, 0)" xlink:href="#ЃезымЯнный_градиент_3"/><linearGradient id="ЃезымЯнный_градиент_99" x1="-18.06" y1="104.69" x2="1.89" y2="104.69" gradientTransform="matrix(-1, 0, 0, 1, 60.95, 0)" gradientUnits="userSpaceOnUse"><stop offset="0" stop-color="#ca0000"/><stop offset="1" stop-color="#a80009"/></linearGradient><linearGradient id="ЃезымЯнный_градиент_99-2" x1="25.68" y1="116.89" x2="44.02" y2="116.89" xlink:href="#ЃезымЯнный_градиент_99"/><linearGradient id="ЃезымЯнный_градиент_99-3" x1="33.27" y1="126.3" x2="60.95" y2="126.3" xlink:href="#ЃезымЯнный_градиент_99"/><linearGradient id="ЃезымЯнный_градиент_30-3" x1="28.06" y1="189.34" x2="26.37" y2="176.97" xlink:href="#ЃезымЯнный_градиент_30"/><linearGradient id="ЃезымЯнный_градиент_22-3" x1="82.33" y1="335.99" x2="104.09" y2="335.99" gradientTransform="matrix(-1, 0, 0, 1, 254.61, 0)" xlink:href="#ЃезымЯнный_градиент_22"/><linearGradient id="ЃезымЯнный_градиент_22-4" x1="114.93" y1="337.66" x2="146.15" y2="337.66" gradientTransform="matrix(-1, 0, 0, 1, 254.61, 0)" xlink:href="#ЃезымЯнный_градиент_22"/><linearGradient id="ЃезымЯнный_градиент_30-4" x1="143.49" y1="219.11" x2="134.67" y2="154.64" gradientTransform="matrix(-1, 0, 0, 1, 254.61, 0)" xlink:href="#ЃезымЯнный_градиент_30"/><linearGradient id="ЃезымЯнный_градиент_30-5" x1="113.8" y1="104.21" x2="106.79" y2="52.96" gradientTransform="matrix(-1, 0, 0, 1, 254.61, 0)" xlink:href="#ЃезымЯнный_градиент_30"/><linearGradient id="ЃезымЯнный_градиент_3-4" x1="99.34" y1="79.81" x2="106.28" y2="79.81" gradientTransform="matrix(-1, 0, 0, 1, 254.61, 0)" xlink:href="#ЃезымЯнный_градиент_3"/><linearGradient id="ЃезымЯнный_градиент_3-5" x1="120.87" y1="82.89" x2="126.45" y2="82.89" gradientTransform="matrix(-1, 0, 0, 1, 254.61, 0)" xlink:href="#ЃезымЯнный_градиент_3"/><linearGradient id="ЃезымЯнный_градиент_99-4" x1="102.07" y1="93.5" x2="120.07" y2="93.5" gradientTransform="matrix(-1, 0, 0, 1, 254.61, 0)" xlink:href="#ЃезымЯнный_градиент_99"/><linearGradient id="ЃезымЯнный_градиент_99-5" x1="102.07" y1="95.7" x2="118.23" y2="95.7" gradientTransform="matrix(-1, 0, 0, 1, 254.61, 0)" xlink:href="#ЃезымЯнный_градиент_99"/><linearGradient id="ЃезымЯнный_градиент_52" x1="134.54" y1="125.66" x2="148.17" y2="125.66" gradientTransform="matrix(-1, 0, 0, 1, 254.61, 0)" gradientUnits="userSpaceOnUse"><stop offset="0" stop-color="#ff7045"/><stop offset="1" stop-color="#bd3e39"/></linearGradient><linearGradient id="ЃезымЯнный_градиент_11" x1="62.7" y1="90.95" x2="147.64" y2="90.95" gradientTransform="matrix(-1, 0, 0, 1, 254.61, 0)" gradientUnits="userSpaceOnUse"><stop offset="0" stop-color="#bd3e39"/><stop offset="1" stop-color="#ff7045"/></linearGradient><linearGradient id="ЃезымЯнный_градиент_99-6" x1="82.33" y1="332.8" x2="104.09" y2="332.8" gradientTransform="matrix(-1, 0, 0, 1, 254.61, 0)" xlink:href="#ЃезымЯнный_градиент_99"/><linearGradient id="ЃезымЯнный_градиент_99-7" x1="114.93" y1="332" x2="146.15" y2="332" gradientTransform="matrix(-1, 0, 0, 1, 254.61, 0)" xlink:href="#ЃезымЯнный_градиент_99"/><linearGradient id="ЃезымЯнный_градиент_99-8" x1="81.93" y1="149.27" x2="118.59" y2="149.27" gradientTransform="matrix(-1, 0, 0, 1, 254.61, 0)" xlink:href="#ЃезымЯнный_градиент_99"/><linearGradient id="ЃезымЯнный_градиент_30-6" x1="93.7" y1="164.6" x2="90.46" y2="140.89" gradientTransform="matrix(-1, 0, 0, 1, 254.61, 0)" xlink:href="#ЃезымЯнный_градиент_30"/></defs><g id="Слой_2" data-name="Слой 2"><g id="Happy_students" data-name="Happy students"><path class="cls-1" d="M95.54,204.4h3.54A148.66,148.66,0,0,0,102.7,184c1.15-11.15,1.84-19.16,1.84-19.16l-1.84-1.23Z"/><path class="cls-2" d="M69,203.13s8.66.84,15.35.77a87.45,87.45,0,0,1,11.15.5,172,172,0,0,0,5-22.33c2.31-13.93,2.16-18.46,2.16-18.46a105.72,105.72,0,0,1-13.61.92c-8.16.07-23.3,1.15-23.3,1.15Z"/><path class="cls-3" d="M91.46,164.48s-6.91,10-10.14,18.93a49.3,49.3,0,0,0-2.87,17.07l-9.84,1.26-3.51-11.2,6.76-15.9,10.81-9.93Z"/><path class="cls-4" d="M33.72,339.23v3.46s-8.15,2.61-14.53.61c-5.32-1.66-7.13-9.36-7.13-9.36Z"/><path class="cls-5" d="M103.18,337v2.76s-4.73,1.91-15.57,1.73a215.88,215.88,0,0,1-24.37-2.24l.09-3.18Z"/><path class="cls-6" d="M84.39,203.9s-3.15.42-3.84-.89-.5-6.53-1.58-7.3-1.57,1.82-1.57,1.82-.77-2.28-1.47-2.28-1.53,2.28-1.53,2.28S73.68,196,73,196.05s-1.64,5.16-1.64,5.16-.53-3-1.27-3.38-1.15,5.67-.71,6.83,2.18.36,2.18.36a2.13,2.13,0,0,0,1.55.69,1.92,1.92,0,0,0,1.59-1,1.61,1.61,0,0,0,1.39.73,3.91,3.91,0,0,0,1.58-1,3.28,3.28,0,0,0,2.42.77A12.58,12.58,0,0,0,84.39,203.9Z"/><path class="cls-7" d="M44.64,215.35s7.15,20.3,8.19,32.53-1,20.53.88,33.6,9.08,28.45,9.54,32.14-3.08,7.23-2,9.69,2,2.68,2,2.68,7.65.09,11-1.29,4.77-2.31,3.85-3.39-4.62-2.15-2.93-4.61,1.39-1.54-.46-3.54-3.61-40.37-2.92-66.2-2.52-57-2.52-57S47,203.82,46.64,206.36,44.64,215.35,44.64,215.35Z"/><path class="cls-8" d="M9.12,319.62c.3,1.23,2.77,1.38,2.46,3.23a5.31,5.31,0,0,0,.31,3.07s3.84.16,8.3,0a13.8,13.8,0,0,0,3.28-.45h0c2.14-.58,3.08-1.63,2.86-2.61-.31-1.38-1.84-2.15-.46-3.69s-.31-4.31-.15-7.23,10.15-40.6,14.6-60.29S49.26,215.35,52,208.89s16-14.12,16.58-14.44h0l.73-4.52-31.7-17h-9.3A25,25,0,0,1,26.45,180a18.25,18.25,0,0,1-1.57,2.9c-3,4.47-2.23,10.93-2.08,12.31s.85,46-.3,51.52-6.77,20.91-6.62,30.91-.92,26-1.38,30.45S8.81,318.39,9.12,319.62Z"/><path class="cls-9" d="M69,76.21s4.67,4.07,5,7.32,3.7,50.93,3.7,50.93-6.62-23.06-8.92-30.14S69,76.21,69,76.21Z"/><path class="cls-10" d="M52.83,69.63c-2.65-2.37-18.1-6.64-21.62-7.22l-8.11-1.3L16.94,62s0,4-.91,6.24-3.68,5.09-4.26,8,.38,7.32.38,7.32L51.35,82l6.09-4.15Z"/><path class="cls-10" d="M71.33,181.92l5.15-1.32.76-5.38s5.69-6.12,6.16-17.77c.42-10.6-1.71-12.6-4.85-21.72s-11-25.87-11-25.87l-5.08,30Z"/><path class="cls-11" d="M30,71.06s2.76,3.75,11.45,5A18.93,18.93,0,0,0,53.3,73.87a24.07,24.07,0,0,1-3.21-1.52h0a8.16,8.16,0,0,1-2.37-1.86c-.24-.33-.44-.62-.6-.86v0a3.73,3.73,0,0,1-.71-1.35L39.71,63.8l-5.43-3.64s.83,4.72.52,6.71c-.18,1.14-2,2.49-3.59,3.45Z"/><path class="cls-12" d="M31.21,70.32a30.67,30.67,0,0,0,10.72,2.47,45,45,0,0,0,8.15-.44,8.16,8.16,0,0,1-2.37-1.86c-.24-.33-.44-.62-.6-.86v0L39.71,63.8l-5.43-3.64s.83,4.72.52,6.71C34.62,68,32.78,69.36,31.21,70.32Z"/><path class="cls-13" d="M26.42,37.84s.46,9,3.23,14.49S38.07,66,39.72,67.65c1.47,1.51,7.59,2.52,10.37,1.68,1.91-.58,13.16-10.95,14-14.3s-.26-8-.35-12.43c-.05-3.17,1.86-8.89,2.71-12.4v0a9.58,9.58,0,0,0,.39-2.53.83.83,0,0,0-.07-.3c-.68-1.38-7.86-13.5-25.32-14a19,19,0,0,0-5.34.55C24.34,17,25.63,31.72,26.42,37.84Z"/><path class="cls-11" d="M26.42,37.84s.46,9,3.23,14.49S38.07,66,39.72,67.65c1.47,1.51,7.59,2.52,10.37,1.68,0,0-8.58-.69-10.6-4.3S32.34,51.3,32,41.87c-.18-5.47,1.47-17.06,9.13-17.82S66.45,30.2,66.45,30.2v0l1-1.91-.59-.62L61,21.51,36.11,13.94C24.34,17,25.63,31.72,26.42,37.84Z"/><path class="cls-14" d="M56.19,44.63c-.21,1.34,5.29,3.08,7.2,1.09,1-3.59-.17-7.58-2.37-8.51S56.56,42.37,56.19,44.63Z"/><path class="cls-14" d="M37.14,39.75c0,1.26.78,2.77,3,3.92s6.65.43,6.63-1.15c0-1.23-.52-7.9-4-8.88S37.13,39.17,37.14,39.75Z"/><ellipse class="cls-15" cx="41.45" cy="38.34" rx="5.26" ry="2.83" transform="translate(-0.13 76.54) rotate(-85.33)"/><path class="cls-16" d="M39.27,37.69c-.16,1.94.56,3.59,1.6,3.67s2-1.42,2.18-3.36-.56-3.59-1.6-3.68S39.43,35.74,39.27,37.69Z"/><path class="cls-16" d="M46.72,42.52s.11-10.09-4.21-10.21-5.37,7.44-5.37,7.44S39.8,33,42.57,34.21,46.72,42.52,46.72,42.52Z"/><path class="cls-17" d="M56.7,42.34l.09.5c.35,1.7,1.31,2.91,2.44,2.91,1.44,0,2.59-2,2.59-4.38A6.17,6.17,0,0,0,61,38.2,2.26,2.26,0,0,0,59.28,37C58,38.17,57.19,40.53,56.7,42.34Z"/><path class="cls-16" d="M57.44,41.36c0,1.68.8,3,1.79,3S61,43,61,41.36s-.8-3-1.79-3S57.44,39.69,57.44,41.36Z"/><path class="cls-16" d="M56.19,44.63c.08-.24.27-.93.6-1.79.18-.47.4-1,.65-1.49a6.63,6.63,0,0,1,2.32-2.87,2.24,2.24,0,0,1,1.08-.29H61c3.39.23,2.43,7,2.36,7.52.15-.52,2.38-8.49-2-9.43a2.35,2.35,0,0,0-2.15.69c-1.25,1.19-2.09,3.55-2.58,5.36C56.41,43.44,56.24,44.35,56.19,44.63Z"/><path class="cls-16" d="M53.29,58.79a26.68,26.68,0,0,1-7.1-3.55c-3-2.22-6.7-5.59-6.7-5.59S42.74,59,45.2,59.91,53.29,58.79,53.29,58.79Z"/><circle class="cls-14" cx="43.4" cy="39.58" r="1.47"/><circle class="cls-14" cx="61.82" cy="42.52" r="1.47"/><path class="cls-11" d="M46.06,49.31a11,11,0,0,0,4.08,2.49,16.54,16.54,0,0,0,4.26.91S52,54.28,50.76,54.29s-3.26-2.81-3.26-2.81a1,1,0,0,1-1.34,0C45.34,50.83,46.06,49.31,46.06,49.31Z"/><path class="cls-18" d="M56.37,41.77c-.69,4.24,1,8,3.87,8.51s5.68-2.6,6.37-6.85-1-8-3.87-8.51S57.06,37.52,56.37,41.77Z"/><path class="cls-16" d="M55.72,41.66c-.78,4.78,1.18,9.07,4.36,9.59s6.4-2.93,7.18-7.71S66.08,34.47,62.9,34,56.5,36.88,55.72,41.66Zm.65.11c.69-4.25,3.54-7.31,6.37-6.85s4.56,4.27,3.87,8.51-3.54,7.32-6.37,6.85S55.68,46,56.37,41.77Z"/><path class="cls-18" d="M36.1,38.86c-.47,4.67,2,8.74,5.53,9.1s6.77-3.14,7.25-7.8-2-8.74-5.54-9.1S36.57,34.2,36.1,38.86Z"/><path class="cls-16" d="M35.3,38.78C34.76,44,37.55,48.62,41.53,49s7.62-3.53,8.15-8.78S47.42,30.4,43.45,30,35.83,33.53,35.3,38.78Zm.8.08c.47-4.66,3.72-8.16,7.24-7.8s6,4.43,5.54,9.1-3.72,8.15-7.25,7.8S35.63,43.53,36.1,38.86Z"/><polygon class="cls-16" points="56.22 40.81 49.41 39.31 49.18 40.5 56.02 41.37 56.22 40.81"/><polygon class="cls-16" points="36.36 34.87 24 36.62 24.8 37.42 36.04 36.54 36.36 34.87"/><path class="cls-14" d="M51.35,58.46A13.22,13.22,0,0,1,47,58.22c-2.13-.53-6.58-7.5-6.58-7.5S45.35,56,51.35,58.46Z"/><path class="cls-16" d="M48.22,26.89l.71-5.19-1.52,2.08V21.24a24.83,24.83,0,0,0-8.48,2,10.49,10.49,0,0,0-5.53,5.3l1.23,1.64a19.72,19.72,0,0,1,5.76-2.85A18.25,18.25,0,0,1,48.22,26.89Z"/><path class="cls-16" d="M66,34.5A18.4,18.4,0,0,0,61.82,30a27.64,27.64,0,0,0-3.07-2.08l.51-4.54.53,2.37.35-2.21a13.38,13.38,0,0,1,4,3.76,12.56,12.56,0,0,1,2.67,5.46Z"/><path class="cls-11" d="M28.21,41.05s-7.56-10.7-10.9-10.35.4,16.86,5.45,18.35,7.42-.42,7.42-.42Z"/><path class="cls-19" d="M20.72,20.38c0,.8,0,1.59.07,2.36.06,1,.17,2,.32,3,.08.49.16.94.23,1.37.13.79.25,1.49.36,2.12.91,5.13,1.18,5.29,1.18,5.29s1.62,2.61,3.06,5.31c1.18,2.22,2.2,4.27,2.2,4.27l.82.17A88.82,88.82,0,0,1,29,30a22.46,22.46,0,0,1,.72-4.22,17.66,17.66,0,0,1,.58-1.82,20.56,20.56,0,0,1,2.39-4.73A13.43,13.43,0,0,1,34,17.43a132.37,132.37,0,0,1,22.18,5.93A41.92,41.92,0,0,1,72.78,34.87l-4.59-8.66-2.63-5L76.94,30a47.38,47.38,0,0,0-9-16.16c-.7-.83-1.45-1.65-2.26-2.45A39.62,39.62,0,0,0,57.44,5c-.28-.17-.56-.33-.85-.48a34.42,34.42,0,0,0-4.87-2.21A39.51,39.51,0,0,0,36,.07a33.7,33.7,0,0,0-11.45,2.4,3.76,3.76,0,0,0-.54.31,5,5,0,0,0-1.16,2.14A52.14,52.14,0,0,0,20.72,20.38Z"/><path class="cls-12" d="M25.94,45.75a33.68,33.68,0,0,0-4-7.65c-2.77-3.94-4.27-4.81-4.27-4.81a54.66,54.66,0,0,1,4.14,7.05C23.88,44.54,25.94,45.75,25.94,45.75Z"/><path class="cls-12" d="M23.1,40.73s-.72,2.16-2,2.11-2.56-2.11-2.56-2.11,1.16,2.83,3.27,3.14,1.92-1.35,1.92-1.35Z"/><path class="cls-20" d="M34.06,17.42a112.27,112.27,0,0,1,16.35-3.48,97.59,97.59,0,0,1,17.48-.13c-.7-.83-1.45-1.65-2.26-2.45a82.11,82.11,0,0,0-15.54,1.07A83.83,83.83,0,0,0,34.06,17.42Z"/><path class="cls-20" d="M34.05,17.41C34.5,17,41.81,9.88,49.18,7A58.31,58.31,0,0,1,56.59,4.5a34.42,34.42,0,0,0-4.87-2.21,51.84,51.84,0,0,0-6.84,4.3C40.42,9.88,34.42,17,34.05,17.41Z"/><path class="cls-20" d="M22.83,4.92c.65,1.13,1.65,2.8,3.11,5.13a21.56,21.56,0,0,0,8,7.32A18,18,0,0,1,27.27,10a40.38,40.38,0,0,1-2.74-7.51,3.76,3.76,0,0,0-.54.31A5,5,0,0,0,22.83,4.92Z"/><path class="cls-20" d="M20.72,20.38c0,.8,0,1.59.07,2.36A12.61,12.61,0,0,1,24,21.23a67.73,67.73,0,0,1,8.66-2s-5.55-.69-9.54.38A20.6,20.6,0,0,0,20.72,20.38Z"/><path class="cls-20" d="M21.34,27.09c.13.79.25,1.49.36,2.12a24.83,24.83,0,0,1,3.88-2.16,12.7,12.7,0,0,1,4.1-1.3,17.66,17.66,0,0,1,.58-1.82A34,34,0,0,0,24,25.72,19.3,19.3,0,0,0,21.34,27.09Z"/><path class="cls-21" d="M36,.07a20.73,20.73,0,0,0,5.47,13.32C47,19.59,63.51,24.81,68.19,26.21l-2.63-5L76.94,30a47.38,47.38,0,0,0-9-16.16c-.7-.83-1.45-1.65-2.26-2.45A39.62,39.62,0,0,0,57.44,5c-.28-.17-.56-.33-.85-.48a34.42,34.42,0,0,0-4.87-2.21A39.51,39.51,0,0,0,36,.07Z"/><path class="cls-22" d="M22.65,172c-.46,1.54,14.15,1.15,20,5.42s9.79,13.14,13.13,13.72,16-1.61,16-1.61-.35-3.46-.57-8.54-2-22.83-3-33,.81-28.38.81-38.07c0-3.76-.54-9.57-1.2-15.28h0c-1-9-2.38-17.69-2.38-17.69L57,74.55h0L50.92,72.8s-.51,1.61-6.51,1.54-13.78-3.67-13.78-3.67l-9.21,1s3.23,47.37,4.52,59.05S23.11,170.45,22.65,172Z"/><path class="cls-23" d="M22.65,172c-.46,1.54,14.15,1.15,20,5.42s9.79,13.14,13.13,13.72,16-1.61,16-1.61-.35-3.46-.57-8.54-2-22.83-3-33,.81-28.38.81-38.07c0-3.76-.54-9.57-1.2-15.28h0l-.46-9.73-1.92-8L57,74.54,50.92,72.8s-.51,1.61-6.51,1.54-13.78-3.67-13.78-3.67l-9.21,1s3.23,47.37,4.52,59.05S23.11,170.45,22.65,172Zm8.72-1.85s8.43-1.49,12.7,0,9.45,7.73,9.45,7.73A23.18,23.18,0,0,0,43,167.26c-7.73-3.93-9.92-10.5-9.64-16s8-12.92,8.06-13.61S39.54,132.34,39,128c-1.35-10.61-1.06-22.57,2.65-27.79,2.69-3.79,10-4.25,18.9-5a22.58,22.58,0,0,1,.79,4.18c.76,9.43,3.61,57.82,7.19,70.74s-.35,17.07-2.89,17.76-9.45-.23-16-7.26S31.37,170.14,31.37,170.14Z"/><path class="cls-24" d="M79,136.69S64.44,106.8,63.3,100.94,60.87,75.22,60,74l-.91-1.27s8.76,2.44,10,3.53.63,24.84,3.4,35.45S78.55,134.73,79,136.69Z"/><path class="cls-25" d="M23.11,108.16c.13,4,0,8.13-.25,12.35-.29,4.55-.74,9.13-1.2,13.52-.1.88-.2,1.77-.29,2.64s-.17,1.54-.25,2.29c-.1,1-.21,1.94-.3,2.88h0c-.18,1.67-.33,3.28-.47,4.8-.62,6.68-.79,11.85.38,14a15.94,15.94,0,0,0,5.54,6,12.33,12.33,0,0,0,2.79,1.38s1.52-12.45,3.6-23.52a184.67,184.67,0,0,0,1.41-51.91,66.12,66.12,0,0,0-1.35-7.47,50.68,50.68,0,0,0-4.22-11.62c-2.87-5.56-5.66-7.82-5.66-7.82s.24,1.22.37,2.47a5.17,5.17,0,0,1-.09,2.48c-.55.77-6.61,1.77-6.15,2.13.3.23,2.54,6.59,4.24,16.64A140.06,140.06,0,0,1,23.11,108.16Z"/><path class="cls-26" d="M29.05,168.06l-.71,4.85s-4.92-2.77-6.23-4.85-1.4-7.38-1.4-7.38S24.59,166.3,29.05,168.06Z"/><path class="cls-27" d="M0,132.77c.12,7.84,7.38,37.72,11.07,40.95s13.81,6.11,13.81,6.11l2.8-3.8a65.65,65.65,0,0,0-1.42-9.35,37.06,37.06,0,0,0-2.73-8.07,34.61,34.61,0,0,1-3.19-12c-.21-2.16-3.4-13.05,2.52-26.14A13.84,13.84,0,0,0,24,115.86c1.12-4.54.11-16.28-1.62-26.35C20.83,80.18,18.63,72.27,17,72.8,13.49,73.92-.11,124.93,0,132.77Z"/><path class="cls-28" d="M76.48,180.6l.76-5.38s8.62-12.69,4.23-28.15-17.13-39.7-20-45.69-8.65-31.75-8.65-31.75l6.23,3.05s1.55-.53,3.66,11.82,2.51,21.8,8.45,34.32,11,21.68,12.92,32.29S78.32,174.93,78,175.39s-.86,5.21-.86,5.21Z"/><path class="cls-29" d="M0,132.77c.12,7.84,7.38,37.72,11.07,40.95s13.81,6.11,13.81,6.11v-.77s-8.54-8.15-11-11S4,137.69,4.2,132.61s8-39.82,11.07-42.28c1-.82,3.32-1,5.93-.89.4,0,.81,0,1.22.07A85.31,85.31,0,0,1,32.94,91.1l-.23-5.94-.29-7.64-3.93-4-5.27-5.36h0a5.17,5.17,0,0,1-.09,2.48c-.55.77-6.61,1.77-6.15,2.13C13.49,73.92-.11,124.93,0,132.77Z"/><path class="cls-28" d="M16.94,62S28.19,69.41,32.34,88s1,50.37-.13,56.75-3.87,28.14-3.87,28.14L30,172s6.18-32.45,7.41-58.75-2.8-37.49-6-43.61A22,22,0,0,0,23.65,61Z"/><path class="cls-7" d="M9.12,319.62c.3,1.23,2.77,1.38,2.46,3.23a5.31,5.31,0,0,0,.31,3.07s3.84.16,8.3,0a13.8,13.8,0,0,0,3.28-.45,18.6,18.6,0,0,1-3-.08c-2.35-.25-6.76-2.77-5.15-3.85S23.72,319,23.72,319s-10.38.69-10.68-.53,1.61-3.23,2.77-4.92,3-23.69,2.76-30.61,3-28.14,4.85-29.06,2.54,8.76,4.26,6.69,2.66-45.45,10-52.6,30.24-13.33,31-13.52h0l-1.06-1.85-16.17-1.36-21-15.2-3.89,4a18.25,18.25,0,0,1-1.57,2.9c-3,4.47-2.23,10.93-2.08,12.31s.85,46-.3,51.52-6.77,20.91-6.62,30.91-.92,26-1.38,30.45S8.81,318.39,9.12,319.62Z"/><path class="cls-30" d="M27.68,176A19.94,19.94,0,0,0,32.11,178c3.15,1.08,10.53,8.23,10.53,8.23s-6.92,1.69-9,1.88-6.14,1.23-7,0-1.72-8.26-1.72-8.26Z"/><path class="cls-31" d="M32.94,176s-1.61,3.57-3.89,7.61-2.95,5.42-2.95,5.42,5,6.57,11,8,12.74,0,13.52-4.85-6.66-10.27-9.39-12A80.58,80.58,0,0,0,32.94,176Z"/><path class="cls-32" d="M63.33,336.12c.34.86,12.79,1.26,18.4,1.9,1.43.16,2.72.26,3.94.3h0c3.51.15,6.49-.09,11-.3,6.11-.3,6.46-1,6.46-1s-3.75-2.89-7.1-3.29-14-4.39-15.56-5.94c-2.72-2.71,4.49-8.54,3.34-9.22s-6.87-.74-7.62,0-.7,5.6-1.31,5.85S63.84,326,63.84,326,63,335.25,63.33,336.12Z"/><path class="cls-32" d="M11.77,332.19c-.12,2,2,6,3.81,6.64a11.18,11.18,0,0,0,2.09.44h0A77.09,77.09,0,0,0,29,340c4.68-.07,4.77-.76,4.77-.76s-.16-2.08-3-3.81c-1.75-1.05-3.35-3.7-4.33-5.62-.64-1.24-1-2.18-1-2.18,0-2,3.69-5.77,2.62-6.77s-7.93-.84-9.31.46,0,4.66,0,4.66l-6.31,0S11.89,330.23,11.77,332.19Z"/><path class="cls-11" d="M79.77,205.23s-1.28-.14-1.85-2.45a20.77,20.77,0,0,1-.58-4.5,17.27,17.27,0,0,0,0,4.16C77.63,204.47,77.61,205.15,79.77,205.23Z"/><path class="cls-11" d="M75.93,205.48s-1.13-.3-1.39-2.21a38.56,38.56,0,0,1-.2-4.78,23.38,23.38,0,0,0-.09,5.45A1.82,1.82,0,0,0,75.93,205.48Z"/><path class="cls-11" d="M72.78,205.71s-.66-.42-.92-2.34a26.49,26.49,0,0,1,.11-5.09,15,15,0,0,0-.74,4.76c.16,2,.29,2,.29,2A1.88,1.88,0,0,0,72.78,205.71Z"/><path class="cls-33" d="M63.33,336.12c.34.86,12.79,1.26,18.4,1.9,1.43.16,2.72.26,3.94.3-1.93-.37-14.19-2.21-12-6.78,1.91-3.92,6.81-3.73,6.81-3.73-2.72-2.71,4.49-8.54,3.34-9.22s-6.87-.74-7.62,0-.7,5.6-1.31,5.85S63.84,326,63.84,326,63,335.25,63.33,336.12Z"/><path class="cls-33" d="M11.77,332.19c-.12,2,2,6,3.81,6.64a11.18,11.18,0,0,0,2.09.44,5.71,5.71,0,0,1-1.48-.46,6,6,0,0,1-2.76-4.27c-.11-.93.69-4.93,4.38-4.74s8.55,0,8.55,0c-.64-1.24-1-2.18-1-2.18,0-2,3.69-5.77,2.62-6.77s-7.93-.84-9.31.46,0,4.66,0,4.66l-6.31,0S11.89,330.23,11.77,332.19Z"/><path class="cls-34" d="M150.52,338.23v2.94a36.42,36.42,0,0,0,11.82.41c5.77-.93,9.63-8.37,9.63-8.37l.31-3.13-8.1,6Z"/><path class="cls-35" d="M108.46,336.23v2.94a69.88,69.88,0,0,0,13.52.45c7.72-.47,17.69-.29,17.69-.29v-3.17s-10-.81-16.14-.52S108.46,336.23,108.46,336.23Z"/><polygon class="cls-11" points="138.98 330.16 138.51 326.77 132.4 326.15 130.68 330.16 138.98 330.16"/><polygon class="cls-11" points="171.97 327.93 171.74 326.85 166.16 325.6 165.66 327.39 166.66 331.46 169.43 331.7 171.97 327.93"/><path class="cls-36" d="M134.72,158.19a32.62,32.62,0,0,1-.19,3.8c-.16.47-4.78,9-7.49,15s-5.59,24.19-5,41.73,3.18,35.85,6.28,53.54,3.56,49.91,3.56,51-.16,2.8-.16,2.8l7.54.77s9.07-32,8.92-39.52-4.61-20.45-5.84-25.84,4.46-36,4.46-36-2.93-11.77-2.62-19.8,17.8-27,17.8-27l-5.5-10.65-.34-8.65Z"/><path class="cls-37" d="M102.38,213c0,1,1.28,4.09,1.47,4,.86-.59-.3-2.67-.15-3.48a20.34,20.34,0,0,1,1.43-3.21,22.58,22.58,0,0,0-.59,3.17c0,.65,1.49,4.42,2,4.7a1.11,1.11,0,0,0,.91.08s.78.81.93.49-1-3.39-1-4.21a27.63,27.63,0,0,1,1.37-4.36,11.58,11.58,0,0,0-.48,3.89c.27,1.24,1.44,4.6,1.84,4.18s-.34-4.37.22-6.57,3.28-5.93,3.28-5.93a3.32,3.32,0,0,1,0,.81,30.34,30.34,0,0,0-.57,3.76c0,1.65,1,3.55,1.53,3.08s.09-1.3.37-3.44,1.31-4.94,1.18-6.51a10.56,10.56,0,0,0-.85-2.57v0a5.78,5.78,0,0,1-.33-3.16c.49-2.55,11.41-19.32,12-24.39a32.2,32.2,0,0,0-.68-8.13c-1-5.36-2.81-10.77-4.35-10.05-1,.44-2.21,2.47-3.87,5.83-.66,1.34-1.39,2.9-2.18,4.65-.33.72-.67,1.48-1,2.26-3.34,7.46-2.55,28.39-3,29a74.34,74.34,0,0,0-5.49,7.87C104.51,207.92,102.4,212,102.38,213Z"/><path class="cls-11" d="M115.34,200.76a5.78,5.78,0,0,1-.33-3.16c.49-2.55,11.41-19.32,12-24.39a32.2,32.2,0,0,0-.68-8.13l-8.22-4.22c-.66,1.34-1.39,2.9-2.18,4.65,0,0,4.17,5.87,4.93,11.55s-5.17,17-6.12,18.84S115.2,200.49,115.34,200.76Z"/><path class="cls-38" d="M187,153.74s-1.19-5.36,1-9.35,2.06-3.25,3.22-5.85.2-2.69-1.18-5.57-20.88-19.11-21.11-23.42.2-31.08.1-32.42S158.82,58.8,156.59,57.8,116.84,55.88,115.22,63s5.08,20.53,3.62,25.95-6.46,10.88-4.66,15.18,4.27,5.92,4.62,9.81-6.81,14.86-8.73,17.64-2.69,2.62-1.88,5.89,7.26,12.95,7.61,16.57.58,5.46.58,5.46,11.56-1.58,17.36-2.23,5.55-6.83,30.31-6.11C172,151.35,187,153.74,187,153.74Z"/><path class="cls-11" d="M129.83,113.9s6.73,1.39,11.35,2.42,19-.69,19-.69,9.69,19.49,11,23.64,2.76,11,2.76,11,13.61,18.5,14.88,17.58-.54-17.65-4.69-28.61S172.34,116,169.36,113.9s-3.92-1.58-6.23-2.12c-.94-.22-3-.9-5.14-1.66a51.73,51.73,0,0,1-6.71-2.72c-.39-.4-.74-3.42-.9-5-.06-.56-.09-.94-.09-.94l-5.49,1.89-2.77,1s-.21,1.91-.21,3c0,.22-.51.64-1.32,1.16C137.38,110.44,129.83,113.9,129.83,113.9Z"/><path class="cls-12" d="M140.5,108.48a16.5,16.5,0,0,0,4.9,1c3.74.42,12.59.6,12.59.6a51.73,51.73,0,0,1-6.71-2.72c-.39-.4-.74-3.42-.9-5l-5.58,1-2.77,1s-.21,1.91-.21,3C141.82,107.54,141.31,108,140.5,108.48Z"/><path class="cls-39" d="M134.53,111.66s-2.36,1.17-4.7,2.24-5.15,3.29-6.18,6c-1.65,4.24-2.8,21.91-3.58,27a117.74,117.74,0,0,1-3.1,13.26,58.44,58.44,0,0,0,7.71,4.27L128,165.8s4.49-14.88,5.19-19.72S134.53,111.66,134.53,111.66Z"/><path class="cls-40" d="M125.42,94.75c2.14,3.63,9.58,8.19,16.57,9.57h0a20.08,20.08,0,0,0,2.29.34c5.14.47,14.27-7,17.38-12.69s4-17.12,4-17.12-6.46-22.12-17-21.64-23.53,9.62-24.1,15.47.56,8.87.74,14.35S123.05,90.71,125.42,94.75Z"/><path class="cls-11" d="M142,104.33a20.08,20.08,0,0,0,2.29.34c5.14.47,14.27-7,17.38-12.69s4-17.12,4-17.12-6.46-22.12-17-21.64-23.53,9.62-24.1,15.47a38,38,0,0,1,20.39-6.35c11.67,0,14.56,9.57,14.21,16.61s-1.54,12.19-6,17.48-7.48,7.08-8.83,7.59A5.15,5.15,0,0,1,142,104.33Z"/><path class="cls-14" d="M150.3,93.14A32.3,32.3,0,0,1,143,95.36a23.94,23.94,0,0,1-5.28.15s1.59,3.31,3.75,3.36,7-3.23,7.12-3.31S150.3,93.14,150.3,93.14Z"/><path class="cls-14" d="M134.53,86.76s-4.2-9.45-6.38-8.73-2,4.49-2,4.49.44,4.42,2.11,5.22S134.07,87.83,134.53,86.76Z"/><path class="cls-14" d="M145.41,85.41s1.13-8.13,4.93-9.18a8.82,8.82,0,0,1,7,1.32s.23,3.85-2.1,6.07S145.63,85.71,145.41,85.41Z"/><path class="cls-41" d="M148.32,79.81c0,2.38,1.56,4.32,3.47,4.32s3.47-1.94,3.47-4.32-1.55-4.32-3.47-4.32S148.32,77.42,148.32,79.81Z"/><path class="cls-16" d="M149.33,79.29a2.52,2.52,0,1,0,2.46-3.06A2.82,2.82,0,0,0,149.33,79.29Z"/><path class="cls-42" d="M128.22,83.29c.35,2.36,1.87,4.09,3.4,3.87a2.7,2.7,0,0,0,2-2.08,5.45,5.45,0,0,0,.14-.58h0c-.24-.61-.51-1.3-.82-2a26.22,26.22,0,0,0-1.46-2.9,9.44,9.44,0,0,0-.62-1,1.48,1.48,0,0,0-.47,0,2,2,0,0,0-1.09.56A4.84,4.84,0,0,0,128.22,83.29Z"/><path class="cls-16" d="M129,82.66c.24,1.67,1.32,2.9,2.4,2.74a2,2,0,0,0,1.46-1.67,4.2,4.2,0,0,0,.1-1.25,26.22,26.22,0,0,0-1.46-2.9,1.35,1.35,0,0,0-1-.24,1.39,1.39,0,0,0-.65.27A3.34,3.34,0,0,0,129,82.66Z"/><path class="cls-16" d="M145.33,85.75s-.2-8.08,4.34-10.18,7.38.07,8.61-.31a10.39,10.39,0,0,0,2-.85s-1.23,3-2.92,3.14S153,75.81,150,77.1,145.33,85.75,145.33,85.75Z"/><path class="cls-16" d="M158.82,75.49s-1.58-.73-4.54-1.92a14.57,14.57,0,0,0-5.49-1.08,11.75,11.75,0,0,1,3.76,1.23c1.54.93,2.5,1.46,2.5,1.46Z"/><path class="cls-16" d="M122.52,79.84c.32.32,3.08,2.85,3.9,2.69s-.36-5.2,2.77-3.41a.2.2,0,0,1,.09,0,3.3,3.3,0,0,1,.55.44,23.39,23.39,0,0,1,3,4.12c.28.48.55.93.78,1.35.51.88.86,1.55.93,1.68-.05-.17-.34-1.07-.79-2.26h0c-.24-.61-.51-1.3-.82-2a26.22,26.22,0,0,0-1.46-2.9,9.44,9.44,0,0,0-.62-1c-1-1.42-2.06-2.4-3.16-2.2-1.9.34-1.67,3.75-2.36,4.21S122.79,80,122.52,79.84Z"/><path class="cls-16" d="M126.18,80.33a29.75,29.75,0,0,1,0-3.53,7.4,7.4,0,0,1,.42-2.39,15.94,15.94,0,0,0-1.11,3.66,7.51,7.51,0,0,0,.23,3.07Z"/><path class="cls-16" d="M157.21,78.57a7,7,0,0,1-1.73,4.19,8.28,8.28,0,0,1-4,2.53s3.09-.46,4.48-1.77S157.21,78.57,157.21,78.57Z"/><path class="cls-16" d="M132.87,87.77a21.89,21.89,0,0,1-3.92-.4C127.72,87,126.79,85,126.79,85s.47,2.43,1.27,3.2S132.87,87.77,132.87,87.77Z"/><circle class="cls-14" cx="149.33" cy="81.93" r="1.48"/><path class="cls-14" d="M127.58,84a1.13,1.13,0,1,0,1.13-1.12A1.12,1.12,0,0,0,127.58,84Z"/><path class="cls-16" d="M143.52,65.39s2.38.24,5.81.47,4.07-.43,6.95.48a9.47,9.47,0,0,1,4.5,3.15s-3.69-2.48-7.21-2-5.94,1.36-7.84,1.19S143.52,65.39,143.52,65.39Z"/><path class="cls-16" d="M130.37,67.84a18.23,18.23,0,0,1-3.77,2.83c-2.32,1.32-2.92,2.08-3.25,3.87a8.45,8.45,0,0,0,.06,2.59,4.27,4.27,0,0,1,1.5-3.47c1.67-1.26,3.1-.22,4.92-1.78S130.37,67.84,130.37,67.84Z"/><path class="cls-43" d="M152.33,90.57s-1.24,2.57-6.08,3.32a63.34,63.34,0,0,1-11.72.23,9.1,9.1,0,0,0,5.43,2.3A22.39,22.39,0,0,0,149.33,94a10,10,0,0,0,3.2-3.23Z"/><path class="cls-44" d="M152.53,90.77s-.82,1.79-2.48,4.6-4.84,5.34-7.34,5.26-3.38-1.53-4.19-2.84a11.16,11.16,0,0,0-2.14-2.39l1.49.12a8.85,8.85,0,0,1,1.3,1.42c.7.93,2.12,1.22,4.17.62,2.64-.78,6.48-3.92,6.48-3.92Z"/><path class="cls-11" d="M144.18,89.05a19.38,19.38,0,0,1-4,1.2,17.49,17.49,0,0,1-4.66.28s1.81,1.74,3.67,1.54a3.78,3.78,0,0,0,2.37-1.26s.3.36,1.44.22S144.18,89.05,144.18,89.05Z"/><path class="cls-38" d="M167.37,79a20.49,20.49,0,0,0-3.32,3.94,13.42,13.42,0,0,1-2.15,2.86V79.29a14.86,14.86,0,0,0-.31-3.33Z"/><path class="cls-45" d="M125.83,143.43c1,1.76,5,4.72,5.31,4.83s3.58,9.93,3.58,9.93,7.6,1.61,11.64,1.27a68,68,0,0,0,8.08-1.27s6-8.69,8-14.35c.78-2.18,1.63-4.8,2.37-7.19,1.19-3.8,2.13-7,2.13-7a38.84,38.84,0,0,1-5-6.69,9.88,9.88,0,0,1-1.26-3.38,75.31,75.31,0,0,1-.39-8.64h0a58.41,58.41,0,0,1-15,3c-7.61.34-10.79-2.24-10.79-2.24s-2,6-4.41,11.66a51.33,51.33,0,0,1-3.33,6.61C123.1,135.81,124.11,140.25,125.83,143.43Z"/><path class="cls-45" d="M158,121.63c0,.16,0,.33,0,.49.64,7.27,2.74,10.7,2.74,10.7s2.34,2.06,4.07,3.83c.26.26.51.53.73.78,2.64,2.9,5.54,8.74,7.1,12.13h0c.71,1.55,1.14,2.59,1.14,2.59a24.1,24.1,0,0,1,5.93,3.44c4.53,3.35,9.45,10.21,9.45,10.21s-.86-16.54-4.48-26.53c-4.21-11.65-10.15-23-15.21-26.23-3.37-2.16-9.24-2.13-9.24-2.13h0A19,19,0,0,0,158,121.63Z"/><polygon class="cls-11" points="139.07 140.39 138.91 142.03 137.77 141.46 138.42 140.75 139.07 140.39"/><path class="cls-39" d="M130.12,123.32c3.25-2.23,8.47-2.78,11.63-2.62,13.85.69,22.52,8.4,25.23,8.92,5.92,1.16,7.88,14.95,8.91,16.86s-2.93,3-3.2,3.08c.71,1.55,1.14,2.59,1.14,2.59a24.1,24.1,0,0,1,5.93,3.44c4.53,3.35,9.64,10.21,9.64,10.21s-1.05-16.54-4.67-26.53c-4.21-11.65-10.15-23-15.21-26.23-3.37-2.16-9.24-2.13-9.24-2.13h0a58.41,58.41,0,0,1-15,3c-7.61.34-10.79-2.24-10.79-2.24S132.57,117.68,130.12,123.32Z"/><path class="cls-46" d="M118.8,113.9s-1.16,3.46-5.65,7-6.92,7.37-6.69,10.61a15.67,15.67,0,0,0,1.73,5.89s1.15-4.77,7.26-8.19C123.27,124.85,118.8,113.9,118.8,113.9Z"/><path class="cls-47" d="M107,96.43c.57,2.13,7.14,7.66,7.14,7.66s-.68-2.42,2.89-6.58,8.6-6.59,6.2-13.38-7.08-17.73-5.86-21.22c2.43-6.89,37.86-.22,37.86-.22a30.56,30.56,0,0,0,1.29,7,13.16,13.16,0,0,0,3.72,6.16c4.61,3.81,6.68,4.18,6.68,4.18s1.14,14.91-1.54,21.59-1.41,15.22,6.89,22.26,16.15,8.08,18.34,10.61a3.39,3.39,0,0,1,0,4.73c.23-.11,3.2-1.71-1-9-4.39-7.54-6.23-24.24-6.23-41.27,0-8.69-.86-14.33-2.52-18.58a27.25,27.25,0,0,0-7-9.86c-6.23-6.11-26.8-18.39-41.87-18-7,.2-20.07,21.81-20.76,25.19s.92,14-.46,18.92S106.46,94.29,107,96.43Z"/><path class="cls-48" d="M154.74,62.59l-3.17-.54s-12.78-5.52-17.83-6.59a70.63,70.63,0,0,0-14.14-1.81l.6-.82a54.24,54.24,0,0,1,12,1.38C140.6,55.92,154.74,62.59,154.74,62.59Z"/><path class="cls-48" d="M154.22,62.38l1,.31s-10.53-7.81-15.85-11a61.28,61.28,0,0,0-13-6L125.12,47a113.4,113.4,0,0,1,13.08,5.22C146,55.83,154.22,62.38,154.22,62.38Z"/><path class="cls-48" d="M150.82,46.74A43.55,43.55,0,0,1,153,54.85c.37,1.88,1.09,7.64,1.09,7.64l1.13.2s-.5-4-1.08-8.48A55.55,55.55,0,0,0,153,47.67Z"/><path class="cls-48" d="M155.38,64.06A69.63,69.63,0,0,0,169,66.34c7.44.46,9.76-.08,9.76-.08l1.39,2.45A78.63,78.63,0,0,1,168,67.84a111.57,111.57,0,0,1-12.54-3Z"/><path class="cls-48" d="M156.82,70.47s8.46,5.74,17.11,11.9,9.5,6.68,9.5,6.68v2.64s-8-5.47-14.77-10.92-11.3-8.93-11.3-8.93Z"/><path class="cls-48" d="M187.41,125s-4.39-3.25-12.16-14.45-8.18-18.45-8.18-18.45L167,93.5a46.15,46.15,0,0,0,8.27,18.09c6.64,8.71,12.82,15.33,12.82,15.33Z"/><path class="cls-48" d="M190.65,132.18s-6.86-3.58-15.05-12.05a39.57,39.57,0,0,1-9.86-19.35l-.86,1.47a43.67,43.67,0,0,0,10,18,80.18,80.18,0,0,0,16.34,13.36Z"/><path class="cls-48" d="M112.59,64.83s4,13.6,4.36,21.93-4.85,15.5-4.85,15.5l-1.09-1S117.18,94,116.11,85A134.1,134.1,0,0,0,112,66Z"/><path class="cls-48" d="M111.12,70.91s1.18,5.45,2.14,12.13-5.39,10.1-5.39,10.1l.47-1s5.08-3.94,4.46-9.29a85.81,85.81,0,0,0-1.61-9.48Z"/><path class="cls-48" d="M106.77,133.6s-.44-5.61,3.69-9c7-5.81,9-10.08,9-10.08l.62,2.27s-1.3,2.87-8.73,8c-4.9,3.38-4,10.71-4,10.71Z"/><path class="cls-48" d="M156.29,67.44l.27,2.3a13.16,13.16,0,0,0,3.72,6.16c4.61,3.81,6.68,4.18,6.68,4.18s1.14,14.91-1.54,21.59-1.41,15.22,6.89,22.26,16.15,8.08,18.34,10.61a3.39,3.39,0,0,1,0,4.73c.23-.11,3.2-1.71-1-9-4.39-7.54-6.23-24.24-6.23-41.27,0-8.69-.86-14.33-2.52-18.58,0,0-1.9.64-10.27.44A34.25,34.25,0,0,1,156.29,67.44Z"/><path class="cls-11" d="M164.05,82.89s5.46-7.72,9.3-7.4c2.54.21,2.54,6.46-.07,10.26s-5.9,6.68-8.29,6.34-2.51-1.75-2.51-1.75Z"/><path class="cls-12" d="M164.05,88.09a31.19,31.19,0,0,1,4.23-6.92,15.4,15.4,0,0,1,5.65-3.6,52.49,52.49,0,0,0-4.7,4.36A75.27,75.27,0,0,0,164.05,88.09Z"/><path class="cls-12" d="M166,85a3.13,3.13,0,0,0,1.14,2c.94.61,3.55-.89,3.55-.89s-2.11,1.83-3.46,2-1.76-1.76-1.76-1.76Z"/><path class="cls-49" d="M144.21,217.51c.73,5,5.36,23.35,10.14,41.3,1.3,4.87,2.61,9.69,3.85,14.21,5.85,21.23,7.19,52.41,7.19,52.41l6.35,1.42s3.93-20.35,5.17-33.14v-.06a40.71,40.71,0,0,0,.2-8.63c-1.23-7.53-4.76-19.38-6-26s1-52.53,0-56.28-9.16-24-9.16-24C139.83,194,143.29,211.2,144.21,217.51Z"/><path class="cls-50" d="M168.82,330.39s.46-2.38,0-2.77-3.77-.69-4.08-.77-2.52,3.23-4.37,5-8.62,3.31-9.16,4a6,6,0,0,0-.69,2.38s8.42,1.51,14.18-.57a13.12,13.12,0,0,0,7.58-7.58l-.31-2.15Z"/><path class="cls-51" d="M139,330.16l.69,6a96.23,96.23,0,0,0-12,0c-7.46.38-12.69.76-14.76.53s-4.46-.46-4.46-.46a2.74,2.74,0,0,1,2.07-1.77c1.69-.38,7.91-.53,11.45-2.3s7.16-4.92,7.7-4.92,2.07.53,1.84,1.38a3.13,3.13,0,0,1-.69,1.31Z"/><path class="cls-52" d="M168.28,199.59a47.62,47.62,0,0,1-9.81-3.13,33,33,0,0,1-7.33-4.45l.61,2.36a49.06,49.06,0,0,0,8.62,4,65.83,65.83,0,0,0,7.91,2.38Z"/><path class="cls-52" d="M166.37,200.28a174.31,174.31,0,0,1,1.91,22c0,9.68-.69,30.21,0,35.41s6.8,23.29,6.46,30.1-3.65,38.88-3.65,38.88l-.93-.32s4.27-37.37,3.65-40.91-6.53-26.22-6.68-28.06.11-32.91.11-36.08-2.18-21.43-2.18-21.43Z"/><path class="cls-52" d="M164.46,198.65s-2.29-8.36-3.56-12.82-3.26-10.46-3.26-10.46l-2.17-.33a101.18,101.18,0,0,1,4.24,9.62,127.56,127.56,0,0,1,3.55,14Z"/><path class="cls-53" d="M135.75,326.49s8.95-35.93,7.71-44.24-4.63-19.07-5.25-24.29,6.86-35.3,6.86-35.3l-.61-2.09s-8,34.39-7.55,37.27,5.76,22.61,5.76,26.53-7.84,42-7.84,42Z"/><path class="cls-52" d="M140.08,164.15s-2.14,17.07-2.31,26,7.86,34.27,7.86,34.27-9.12-28.39-9.62-33,2-25.61,2-25.61Z"/><polygon class="cls-54" points="136.01 172.03 140.83 122.12 172.68 126.92 164.41 176.42 136.01 172.03"/><polygon class="cls-10" points="172.68 126.92 169.66 124.96 138.6 119.89 135.38 171.45 136.01 172.03 140.83 122.12 172.68 126.92"/><path class="cls-55" d="M135.1,146.81s-.66,1,.11,1.6,1.7,1.32,5.39,1.9,8.38-.43,9.19-.43,16.72,13.61,24.64,15.63,12.92,3.11,14.38,2.37c2.41-1.21-6.42-12.69-10.75-15.4s-24.62-4.39-26.93-5.59-2.88-4-4-5.12-3.72-1.39-5.57-2.5-2.23-2-2.92-1.84.15,2.11,1.46,3.11a29.09,29.09,0,0,0,3.31,1.88,3.72,3.72,0,0,1,.61.54,13.22,13.22,0,0,1-4.88-.84c-2.08-.93-1.76-2.16-1.76-2.16-.57.06-1.82,1.75-1,2.73l.81,1s-1.24-.74-1.47-.45a1.61,1.61,0,0,0-.29,1.33,2.41,2.41,0,0,0,.78.69s-.95-.35-1.1-.17-.43,1.06-.09,1.41a2.91,2.91,0,0,0,1,.55Z"/><path class="cls-11" d="M140.08,144.64a21.44,21.44,0,0,1-3.09-1.25,3.69,3.69,0,0,1-.89-1.15l-.09.94s.11.28.82.66A17.55,17.55,0,0,0,140.08,144.64Z"/><path class="cls-11" d="M135.38,144.55a5.66,5.66,0,0,0,1.24.85,12.25,12.25,0,0,0,2,.72,10.76,10.76,0,0,1-2.25-.56A1.64,1.64,0,0,1,135.38,144.55Z"/><path class="cls-11" d="M135.21,146.67a12.05,12.05,0,0,0,1.6.69c.8.27,1,.35,1,.35s-1.41-.25-1.86-.39a1.57,1.57,0,0,1-.85-.65l-.09-.19Z"/><path class="cls-56" d="M154.35,258.78v0c1.3,4.87,2.61,9.69,3.85,14.21,5.85,21.23,7.19,52.41,7.19,52.41l6.35,1.42s3.93-20.35,5.17-33.14v-.06l0-.59s-5.25-16.53-11.29-22.65S154.35,258.78,154.35,258.78Z"/></g></g></svg>