<svg width="106" height="106" viewBox="0 0 106 106" fill="none" xmlns="http://www.w3.org/2000/svg">
<path d="M53 0C23.85 0 0 23.85 0 53C0 82.15 23.85 106 53 106C82.15 106 106 82.15 106 53C106 23.85 82.15 0 53 0ZM53 15.9C62.01 15.9 68.9 22.79 68.9 31.8C68.9 40.81 62.01 47.7 53 47.7C43.99 47.7 37.1 40.81 37.1 31.8C37.1 22.79 43.99 15.9 53 15.9ZM53 91.16C39.75 91.16 28.09 84.2702 21.2 74.2C21.2 63.6 42.4 57.77 53 57.77C63.6 57.77 84.8 63.6 84.8 74.2C77.91 84.27 66.25 91.16 53 91.16Z" fill="white"/>
</svg>
